<svg width="200" height="60" viewBox="0 0 200 60" fill="none" xmlns="http://www.w3.org/2000/svg">
<rect width="200" height="60" rx="10" fill="white"/>
<path d="M48.1978 28.7446C48.1978 24.3341 51.6849 22.1288 51.9531 21.991C49.9413 18.9588 46.7225 18.5453 45.6495 18.5453C42.9671 18.2696 40.4189 20.1992 39.0777 20.1992C37.7365 20.1992 35.5906 18.5453 33.4447 18.6831C30.6282 18.6831 27.9458 20.4749 26.4705 23.0936C23.3858 28.469 25.6658 36.463 28.6164 40.8736C30.0917 43.0788 31.8353 45.4219 33.9812 45.2841C36.1271 45.1463 36.9318 43.9058 39.6142 43.9058C42.1624 43.9058 42.9671 45.2841 45.2472 45.2841C47.5272 45.2841 49.0025 43.0788 50.4778 41.0114C52.2213 38.5305 52.8919 36.1874 52.8919 36.0495C52.7578 35.7739 48.3319 33.9821 48.1978 28.7446Z" fill="#372AA4"/>
<path d="M43.9037 15.651C45.1107 14.1349 45.9154 12.0674 45.6472 10C43.9037 10.1378 41.8919 11.2405 40.5507 12.6188C39.4777 13.8592 38.5389 16.0645 38.8071 17.9941C40.8189 18.2697 42.6966 17.1671 43.9037 15.651Z" fill="#372AA4"/>
<path d="M84.5525 44.5804H81.5199L79.9377 39.296H74.2681L72.6859 44.5804H69.7852L75.4548 26.5591H78.8829L84.5525 44.5804ZM79.5422 37.128L78.0918 32.3855C77.9599 31.8435 77.6962 30.7595 77.1688 28.9981C77.037 29.8111 76.7733 30.895 76.3777 32.3855L74.7955 37.128H79.5422Z" fill="#2F2F2F"/>
<path d="M99.186 37.9402C99.186 40.1082 98.6586 41.8697 97.4719 43.2247C96.4171 44.3087 95.0986 44.9862 93.6482 44.9862C91.9342 44.9862 90.7475 44.3087 90.0882 43.0892V49.9996H87.3194V35.9077C87.3194 34.5528 87.3194 33.0623 87.1875 31.5718H89.6927L89.8245 33.6043C90.7475 32.1138 92.1979 31.3008 94.0438 31.3008C95.4941 31.3008 96.8127 31.8428 97.7356 33.0623C98.6586 34.2818 99.186 35.9077 99.186 37.9402ZM96.2853 38.0757C96.2853 36.8562 96.0216 35.7722 95.4941 34.9592C94.8349 34.1463 94.0438 33.7398 92.989 33.7398C92.3297 33.7398 91.6705 34.0108 91.143 34.4173C90.6156 34.9593 90.2201 35.5012 90.0882 36.3142C89.9564 36.7207 89.9564 36.9917 89.9564 37.1272V39.2952C89.9564 40.2437 90.2201 41.0567 90.7475 41.7342C91.2749 42.4117 92.066 42.6827 92.989 42.6827C94.0438 42.6827 94.8349 42.2762 95.4941 41.4632C96.0216 40.5147 96.2853 39.4307 96.2853 38.0757Z" fill="#2F2F2F"/>
<path d="M113.69 37.9407C113.69 40.1087 113.162 41.8702 111.976 43.2252C110.921 44.3092 109.602 44.9867 108.152 44.9867C106.438 44.9867 105.251 44.3092 104.592 43.0897V50.0001H101.823V35.9082C101.823 34.5532 101.823 33.0628 101.691 31.5723H104.197L104.328 33.6047C105.251 32.1143 106.702 31.3013 108.548 31.3013C109.998 31.3013 111.317 31.8433 112.24 33.0628C113.162 34.2822 113.69 35.9082 113.69 37.9407ZM110.789 38.0762C110.789 36.8567 110.525 35.7727 109.998 34.9597C109.339 34.1467 108.548 33.7402 107.493 33.7402C106.834 33.7402 106.174 34.0112 105.647 34.4177C105.12 34.9597 104.724 35.5017 104.592 36.3147C104.46 36.7212 104.46 36.9922 104.46 37.1277V39.2957C104.46 40.2442 104.724 41.0572 105.251 41.7347C105.779 42.4122 106.57 42.6832 107.493 42.6832C108.548 42.6832 109.339 42.2767 109.998 41.4637C110.525 40.5152 110.789 39.4312 110.789 38.0762Z" fill="#2F2F2F"/>
<path d="M129.905 39.5665C129.905 41.057 129.378 42.412 128.323 43.3605C127.136 44.4444 125.554 44.9864 123.576 44.9864C121.73 44.9864 120.148 44.5799 119.093 43.9025L119.752 41.4635C120.939 42.2765 122.389 42.683 123.84 42.683C124.895 42.683 125.686 42.412 126.345 42.0055C126.872 41.4635 127.268 40.9215 127.268 39.973C127.268 39.2955 127.004 38.618 126.477 38.076C125.949 37.534 125.158 37.1275 124.104 36.721C121.071 35.5015 119.489 33.8755 119.489 31.5721C119.489 30.0816 120.016 28.8621 121.071 27.9136C122.126 26.9651 123.576 26.5586 125.422 26.5586C127.004 26.5586 128.323 26.8296 129.378 27.3716L128.587 29.5396C127.532 28.9976 126.477 28.7266 125.29 28.7266C124.235 28.7266 123.576 28.9976 122.917 29.5396C122.389 29.9461 122.258 30.4881 122.258 31.1656C122.258 31.8431 122.521 32.5205 123.049 32.927C123.576 33.3335 124.367 33.8755 125.554 34.282C127.004 34.9595 128.191 35.637 128.85 36.45C129.641 37.263 129.905 38.347 129.905 39.5665Z" fill="#2F2F2F"/>
<path d="M139.268 33.7395H136.235V40.108C136.235 41.734 136.762 42.547 137.817 42.547C138.345 42.547 138.74 42.547 139.004 42.4115L139.136 44.5794C138.608 44.8504 137.817 44.8504 136.894 44.8504C135.839 44.8504 134.916 44.4439 134.257 43.7664C133.598 43.089 133.334 41.8695 133.334 40.2435V33.7395H131.488V31.5716H133.334V29.1326L136.103 28.3196V31.5716H139.136C139.268 31.5716 139.268 33.7395 139.268 33.7395Z" fill="#2F2F2F"/>
<path d="M153.245 37.9402C153.245 39.9727 152.717 41.5987 151.531 42.8182C150.344 44.1732 148.762 44.8507 146.916 44.8507C145.07 44.8507 143.619 44.1732 142.433 42.9537C141.246 41.7342 140.719 40.1082 140.719 38.2112C140.719 36.1787 141.246 34.5528 142.433 33.1978C143.619 31.9783 145.07 31.3008 147.048 31.3008C148.894 31.3008 150.344 31.9783 151.531 33.1978C152.717 34.4173 153.245 36.0432 153.245 37.9402ZM150.344 38.0757C150.344 36.8562 150.08 35.9077 149.553 34.9592C149.025 33.8753 148.102 33.4688 147.048 33.4688C145.861 33.4688 145.07 34.0108 144.411 34.9592C143.883 35.7722 143.619 36.8562 143.619 38.0757C143.619 39.2952 143.883 40.2437 144.411 41.1922C145.07 42.2762 145.861 42.6827 146.916 42.6827C147.971 42.6827 148.894 42.1407 149.421 41.0567C150.08 40.2437 150.344 39.2952 150.344 38.0757Z" fill="#2F2F2F"/>
<path d="M162.346 34.1467C162.082 34.1467 161.818 34.0112 161.423 34.0112C160.368 34.0112 159.708 34.4177 159.181 35.2307C158.654 35.9082 158.522 36.7212 158.522 37.8052V44.5802H155.753V35.6372C155.753 34.1467 155.753 32.7918 155.621 31.5723H158.126L158.258 34.0112H158.39C158.654 33.1983 159.181 32.5208 159.84 31.9788C160.5 31.5723 161.159 31.3013 161.818 31.3013C162.082 31.3013 162.346 31.3013 162.477 31.3013C162.346 31.4368 162.346 34.1467 162.346 34.1467Z" fill="#2F2F2F"/>
<path d="M175.003 37.5332C175.003 38.0752 175.003 38.4817 174.871 38.8882H166.433C166.433 40.1077 166.828 41.1917 167.62 41.8692C168.279 42.4112 169.202 42.8177 170.388 42.8177C171.575 42.8177 172.762 42.5467 173.817 42.1402L174.212 44.1727C173.026 44.7147 171.575 44.9857 169.993 44.9857C168.015 44.9857 166.433 44.4437 165.378 43.2242C164.323 42.0047 163.664 40.5142 163.664 38.4817C163.664 36.5847 164.191 34.8233 165.246 33.6038C166.301 32.2488 167.751 31.5713 169.729 31.5713C171.575 31.5713 172.894 32.2488 173.817 33.6038C174.608 34.4168 175.003 35.9073 175.003 37.5332ZM172.234 36.7202C172.234 35.9073 172.103 35.0943 171.707 34.5523C171.18 33.7393 170.52 33.3328 169.466 33.3328C168.543 33.3328 167.751 33.7393 167.224 34.5523C166.697 35.2298 166.433 35.9073 166.433 36.8557L172.234 36.7202Z" fill="#2F2F2F"/>
<path d="M76.909 15.4483C76.909 17.0743 76.3816 18.2937 75.4587 19.1067C74.5357 19.7842 73.3491 20.1907 71.7668 20.1907C70.9757 20.1907 70.3165 20.1907 69.7891 20.0552V11.3833C70.5802 11.2478 71.3713 11.2478 72.1624 11.2478C73.6128 11.2478 74.7994 11.5188 75.5905 12.1963C76.5135 13.0093 76.909 14.0933 76.909 15.4483ZM75.4587 15.4483C75.4587 14.3643 75.195 13.6868 74.6676 13.0093C74.1402 12.4673 73.3491 12.1963 72.2942 12.1963C71.8987 12.1963 71.5031 12.1963 71.2394 12.3318V18.9712C71.3713 18.9712 71.7668 18.9712 72.1624 18.9712C73.2172 18.9712 74.0083 18.7002 74.6676 18.0227C75.3268 17.3453 75.4587 16.6678 75.4587 15.4483Z" fill="#2F2F2F"/>
<path d="M84.6863 16.8028C84.6863 17.7512 84.4226 18.5642 83.8952 19.2417C83.3677 19.9192 82.5766 20.1902 81.6537 20.1902C80.7307 20.1902 80.0715 19.9192 79.4122 19.2417C78.8848 18.5642 78.6211 17.8867 78.6211 16.9383C78.6211 15.9898 78.8848 15.1768 79.4122 14.4993C79.9396 13.8218 80.7307 13.5508 81.6537 13.5508C82.5766 13.5508 83.2359 13.8218 83.8952 14.4993C84.4226 15.1768 84.6863 15.8543 84.6863 16.8028ZM83.2359 16.9383C83.2359 16.3963 83.104 15.8543 82.8403 15.4478C82.5766 14.9058 82.1811 14.6348 81.6537 14.6348C81.1263 14.6348 80.7307 14.9058 80.3352 15.4478C80.0715 15.8543 79.9396 16.3963 79.9396 16.9383C79.9396 17.4802 80.0715 18.0222 80.3352 18.4287C80.5989 18.9707 80.9944 19.2417 81.6537 19.2417C82.1811 19.2417 82.5766 18.9707 82.8403 18.4287C83.104 18.0222 83.2359 17.4802 83.2359 16.9383Z" fill="#2F2F2F"/>
<path d="M95.1056 13.6858L93.1278 20.0542H91.8093L91.0182 17.3443C90.7545 16.6668 90.6226 15.9893 90.4908 15.3118C90.3589 15.9893 90.2271 16.6668 89.9634 17.3443L89.1722 20.0542H87.8537L86.0078 13.6858H87.4582L88.1174 16.6668C88.2493 17.3443 88.3811 18.0218 88.513 18.6992C88.6448 18.1573 88.7767 17.4798 89.0404 16.6668L89.9634 13.6858H91.15L91.9411 16.6668C92.2048 17.3443 92.3367 18.1573 92.4685 18.8347C92.6004 18.1573 92.7322 17.4798 92.8641 16.6668L93.6552 13.6858H95.1056Z" fill="#2F2F2F"/>
<path d="M102.227 20.0547H100.909V16.3963C100.909 15.3123 100.513 14.7703 99.722 14.7703C99.3265 14.7703 98.9309 14.9058 98.6672 15.1768C98.4035 15.4478 98.2716 15.8543 98.2716 16.2608V20.0547H96.9531V15.4478C96.9531 14.9058 96.9531 14.2283 96.9531 13.6863H98.0079V14.6348C98.1398 14.3638 98.4035 14.0928 98.6672 13.8218C99.0628 13.5508 99.4583 13.4153 99.8539 13.4153C100.381 13.4153 100.909 13.5508 101.304 13.9573C101.832 14.3638 101.963 15.1768 101.963 16.1253V20.0547H102.227Z" fill="#2F2F2F"/>
<path d="M106.045 20.055H104.727V10.8411H106.045V20.055Z" fill="#2F2F2F"/>
<path d="M114.225 16.8028C114.225 17.7512 113.962 18.5642 113.434 19.2417C112.907 19.9192 112.116 20.1902 111.193 20.1902C110.27 20.1902 109.611 19.9192 108.951 19.2417C108.424 18.5642 108.16 17.8867 108.16 16.9383C108.16 15.9898 108.424 15.1768 108.951 14.4993C109.479 13.8218 110.27 13.5508 111.193 13.5508C112.116 13.5508 112.775 13.8218 113.434 14.4993C113.962 15.1768 114.225 15.8543 114.225 16.8028ZM112.775 16.9383C112.775 16.3963 112.643 15.8543 112.379 15.4478C112.116 14.9058 111.72 14.6348 111.193 14.6348C110.665 14.6348 110.27 14.9058 109.874 15.4478C109.611 15.8543 109.479 16.3963 109.479 16.9383C109.479 17.4802 109.611 18.0222 109.874 18.4287C110.138 18.9707 110.533 19.2417 111.193 19.2417C111.72 19.2417 112.116 18.9707 112.379 18.4287C112.643 18.0222 112.775 17.4802 112.775 16.9383Z" fill="#2F2F2F"/>
<path d="M120.818 20.0547H119.631L119.499 19.3772C119.104 19.9192 118.445 20.1902 117.654 20.1902C117.126 20.1902 116.599 20.0547 116.203 19.6482C115.939 19.2417 115.676 18.8352 115.676 18.2932C115.676 17.4802 115.939 16.9383 116.599 16.5318C117.258 16.1253 118.181 15.8543 119.236 15.9898V15.8543C119.236 15.0413 118.84 14.6348 117.917 14.6348C117.258 14.6348 116.731 14.7703 116.335 15.0413L116.203 14.0928C116.731 13.6863 117.522 13.5508 118.313 13.5508C119.895 13.5508 120.686 14.3638 120.686 16.1253V18.4287C120.818 19.2417 120.818 19.7837 120.818 20.0547ZM119.368 17.8867V16.9383C117.785 16.9383 117.126 17.3447 117.126 18.1577C117.126 18.4287 117.258 18.6997 117.39 18.9707C117.522 19.1062 117.785 19.2417 118.049 19.2417C118.313 19.2417 118.577 19.1062 118.84 18.9707C119.104 18.8352 119.236 18.5642 119.368 18.1577C119.368 18.0222 119.368 18.0222 119.368 17.8867Z" fill="#2F2F2F"/>
<path d="M128.726 20.055H127.54V18.971C127.144 19.784 126.485 20.1905 125.562 20.1905C124.771 20.1905 124.243 19.9195 123.716 19.242C123.189 18.5645 122.925 17.887 122.925 16.9385C122.925 15.8545 123.189 15.0415 123.716 14.364C124.243 13.822 124.903 13.4155 125.694 13.4155C126.485 13.4155 127.144 13.6865 127.408 14.2285V10.8411H128.726V18.429C128.594 18.971 128.726 19.513 128.726 20.055ZM127.276 17.345V16.261C127.276 16.1255 127.276 15.99 127.276 15.8545C127.144 15.448 127.012 15.177 126.749 15.0415C126.485 14.7705 126.221 14.635 125.826 14.635C125.298 14.635 124.903 14.906 124.639 15.3125C124.375 15.719 124.243 16.261 124.243 16.9385C124.243 17.616 124.375 18.0225 124.639 18.429C124.903 18.8355 125.298 19.1065 125.826 19.1065C126.221 19.1065 126.617 18.971 126.88 18.5645C127.144 18.2935 127.276 17.887 127.276 17.345Z" fill="#2F2F2F"/>
<path d="M140.456 16.803C140.456 17.7515 140.192 18.5645 139.665 19.242C139.137 19.9195 138.346 20.1905 137.423 20.1905C136.5 20.1905 135.841 19.9195 135.182 19.242C134.654 18.5645 134.391 17.887 134.391 16.9385C134.391 15.99 134.654 15.177 135.182 14.4995C135.709 13.822 136.5 13.551 137.423 13.551C138.346 13.551 139.005 13.822 139.665 14.4995C140.192 15.177 140.456 15.8545 140.456 16.803ZM139.137 16.9385C139.137 16.3965 139.005 15.8545 138.742 15.448C138.478 14.906 138.082 14.635 137.555 14.635C137.028 14.635 136.632 14.906 136.237 15.448C135.973 15.8545 135.841 16.3965 135.841 16.9385C135.841 17.4805 135.973 18.0225 136.237 18.429C136.5 18.971 136.896 19.242 137.555 19.242C138.082 19.242 138.478 18.971 138.742 18.429C139.005 18.0225 139.137 17.4805 139.137 16.9385Z" fill="#2F2F2F"/>
<path d="M147.976 20.0547H146.658V16.3963C146.658 15.3123 146.262 14.7703 145.339 14.7703C144.944 14.7703 144.548 14.9058 144.284 15.1768C144.021 15.4478 143.889 15.8543 143.889 16.2608V20.0547H142.57V15.4478C142.57 14.9058 142.57 14.2283 142.57 13.6863H143.757V14.6348C143.889 14.3638 144.153 14.0928 144.416 13.8218C144.812 13.5508 145.207 13.4153 145.735 13.4153C146.262 13.4153 146.79 13.5508 147.185 13.9573C147.713 14.3638 147.844 15.1768 147.844 16.1253V20.0547H147.976Z" fill="#2F2F2F"/>
<path d="M157.199 14.77H155.616V17.8865C155.616 18.6995 155.88 19.106 156.408 19.106C156.671 19.106 156.803 19.106 157.067 19.106V20.19C156.803 20.3255 156.408 20.3255 156.012 20.3255C155.485 20.3255 155.089 20.19 154.694 19.7835C154.43 19.377 154.298 18.835 154.298 18.022V14.77H153.375V13.686H154.298V12.6021L155.616 12.1956V13.8215H157.199V14.77Z" fill="#2F2F2F"/>
<path d="M164.588 20.055H163.269V16.3965C163.269 15.3125 162.874 14.635 162.083 14.635C161.423 14.635 161.028 14.906 160.764 15.5835C160.764 15.719 160.764 15.8545 160.764 16.1255V19.9195H159.446V10.8411H160.764V14.635C161.16 13.9575 161.819 13.551 162.61 13.551C163.137 13.551 163.665 13.6865 164.06 14.093C164.588 14.635 164.72 15.3125 164.72 16.261C164.588 16.261 164.588 20.055 164.588 20.055Z" fill="#2F2F2F"/>
<path d="M172.105 16.6673C172.105 16.9383 172.105 17.0738 172.105 17.3447H167.886C167.886 18.0222 168.15 18.4287 168.545 18.8352C168.941 19.1062 169.336 19.2417 169.864 19.2417C170.523 19.2417 171.05 19.1062 171.578 18.9707L171.841 19.9192C171.314 20.1902 170.523 20.3257 169.732 20.3257C168.809 20.3257 168.018 20.0547 167.49 19.5127C166.963 18.9707 166.699 18.1577 166.699 17.2093C166.699 16.2608 166.963 15.4478 167.49 14.7703C168.018 14.0928 168.809 13.6863 169.6 13.6863C170.523 13.6863 171.182 14.0928 171.578 14.7703C171.973 15.1768 172.105 15.8543 172.105 16.6673ZM170.787 16.2608C170.787 15.8543 170.655 15.4478 170.523 15.1768C170.259 14.7703 169.864 14.6348 169.468 14.6348C169.073 14.6348 168.677 14.7703 168.413 15.1768C168.15 15.4478 168.018 15.8543 168.018 16.2608C167.886 16.2608 170.787 16.2608 170.787 16.2608Z" fill="#2F2F2F"/>
</svg>
