<svg width="105" height="41" viewBox="0 0 105 41" fill="none" xmlns="http://www.w3.org/2000/svg">
<rect width="104.564" height="40.7151" rx="10" fill="white"/>
<path d="M27.8533 19.7767C27.8533 17.7361 29.4667 16.7157 29.5908 16.652C28.66 15.249 27.1707 15.0577 26.6743 15.0577C25.4332 14.9302 24.2542 15.823 23.6337 15.823C23.0132 15.823 22.0203 15.0577 21.0275 15.1215C19.7243 15.1215 18.4833 15.9505 17.8007 17.1621C16.3735 19.6492 17.4284 23.3478 18.7935 25.3884C19.4761 26.4087 20.2828 27.4928 21.2757 27.429C22.2685 27.3653 22.6408 26.7914 23.8819 26.7914C25.0609 26.7914 25.4332 27.429 26.4881 27.429C27.543 27.429 28.2256 26.4087 28.9082 25.4522C29.7149 24.3043 30.0252 23.2203 30.0252 23.1565C29.9631 23.0289 27.9153 22.1999 27.8533 19.7767Z" fill="#372AA4"/>
<path d="M25.8671 13.7188C26.4256 13.0173 26.7979 12.0608 26.6738 11.1042C25.8671 11.168 24.9363 11.6781 24.3158 12.3158C23.8194 12.8898 23.385 13.9101 23.5091 14.8029C24.4399 14.9304 25.3086 14.4202 25.8671 13.7188Z" fill="#372AA4"/>
<path d="M44.6728 27.1038H43.2697L42.5376 24.6588H39.9145L39.1824 27.1038H37.8403L40.4635 18.7658H42.0496L44.6728 27.1038ZM42.3546 23.6557L41.6836 21.4615C41.6226 21.2107 41.5006 20.7092 41.2566 19.8942C41.1956 20.2704 41.0735 20.7719 40.8905 21.4615L40.1585 23.6557H42.3546Z" fill="#2F2F2F"/>
<path d="M51.4461 24.0313C51.4461 25.0344 51.2021 25.8493 50.6531 26.4763C50.1651 26.9778 49.555 27.2913 48.884 27.2913C48.0909 27.2913 47.5419 26.9778 47.2369 26.4136V29.6108H45.9558V23.0909C45.9558 22.464 45.9558 21.7744 45.8948 21.0848H47.0538L47.1148 22.0252C47.5419 21.3356 48.2129 20.9594 49.067 20.9594C49.738 20.9594 50.3481 21.2102 50.7751 21.7744C51.2021 22.3386 51.4461 23.0909 51.4461 24.0313ZM50.104 24.094C50.104 23.5298 49.982 23.0282 49.738 22.6521C49.433 22.2759 49.067 22.0879 48.5789 22.0879C48.2739 22.0879 47.9689 22.2132 47.7249 22.4013C47.4809 22.6521 47.2979 22.9028 47.2369 23.279C47.1759 23.4671 47.1759 23.5925 47.1759 23.6551V24.6582C47.1759 25.097 47.2979 25.4732 47.5419 25.7867C47.7859 26.1001 48.1519 26.2255 48.5789 26.2255C49.067 26.2255 49.433 26.0374 49.738 25.6613C49.982 25.2224 50.104 24.7209 50.104 24.094Z" fill="#2F2F2F"/>
<path d="M58.1561 24.0315C58.1561 25.0346 57.9121 25.8496 57.3631 26.4765C56.8751 26.978 56.265 27.2915 55.594 27.2915C54.8009 27.2915 54.2519 26.978 53.9469 26.4138V29.6111H52.6658V23.0912C52.6658 22.4643 52.6658 21.7746 52.6048 21.085H53.7639L53.8249 22.0254C54.2519 21.3358 54.9229 20.9597 55.777 20.9597C56.448 20.9597 57.0581 21.2104 57.4851 21.7746C57.9121 22.3389 58.1561 23.0912 58.1561 24.0315ZM56.8141 24.0942C56.8141 23.53 56.6921 23.0285 56.448 22.6523C56.143 22.2762 55.777 22.0881 55.289 22.0881C54.9839 22.0881 54.6789 22.2135 54.4349 22.4016C54.1909 22.6523 54.0079 22.9031 53.9469 23.2792C53.8859 23.4673 53.8859 23.5927 53.8859 23.6554V24.6585C53.8859 25.0973 54.0079 25.4735 54.2519 25.7869C54.4959 26.1004 54.8619 26.2257 55.289 26.2257C55.777 26.2257 56.143 26.0377 56.448 25.6615C56.6921 25.2227 56.8141 24.7212 56.8141 24.0942Z" fill="#2F2F2F"/>
<path d="M65.6575 24.7837C65.6575 25.4733 65.4135 26.1002 64.9255 26.539C64.3764 27.0406 63.6444 27.2913 62.7293 27.2913C61.8753 27.2913 61.1432 27.1032 60.6552 26.7898L60.9602 25.6613C61.5092 26.0375 62.1803 26.2256 62.8513 26.2256C63.3394 26.2256 63.7054 26.1002 64.0104 25.9121C64.2544 25.6613 64.4374 25.4106 64.4374 24.9717C64.4374 24.6583 64.3154 24.3448 64.0714 24.0941C63.8274 23.8433 63.4614 23.6552 62.9733 23.4671C61.5702 22.9029 60.8382 22.1506 60.8382 21.0849C60.8382 20.3953 61.0822 19.831 61.5703 19.3922C62.0583 18.9533 62.7293 18.7653 63.5834 18.7653C64.3154 18.7653 64.9255 18.8907 65.4135 19.1414L65.0475 20.1445C64.5594 19.8937 64.0714 19.7683 63.5224 19.7683C63.0343 19.7683 62.7293 19.8937 62.4243 20.1445C62.1803 20.3326 62.1193 20.5833 62.1193 20.8968C62.1193 21.2102 62.2413 21.5237 62.4853 21.7118C62.7293 21.8999 63.0953 22.1506 63.6444 22.3387C64.3154 22.6521 64.8645 22.9656 65.1695 23.3418C65.5355 23.7179 65.6575 24.2194 65.6575 24.7837Z" fill="#2F2F2F"/>
<path d="M69.9889 22.0878H68.5858V25.0343C68.5858 25.7866 68.8298 26.1627 69.3178 26.1627C69.5619 26.1627 69.7449 26.1627 69.8669 26.1L69.9279 27.1031C69.6839 27.2285 69.3178 27.2285 68.8908 27.2285C68.4028 27.2285 67.9758 27.0404 67.6707 26.7269C67.3657 26.4135 67.2437 25.8492 67.2437 25.0969V22.0878H66.3896V21.0847H67.2437V19.9562L68.5248 19.5801V21.0847H69.9279C69.9889 21.0847 69.9889 22.0878 69.9889 22.0878Z" fill="#2F2F2F"/>
<path d="M76.4561 24.0313C76.4561 24.9717 76.2121 25.724 75.6631 26.2882C75.114 26.9151 74.382 27.2286 73.5279 27.2286C72.6739 27.2286 72.0028 26.9151 71.4538 26.3509C70.9048 25.7867 70.6608 25.0344 70.6608 24.1567C70.6608 23.2163 70.9048 22.464 71.4538 21.8371C72.0028 21.2729 72.6739 20.9594 73.5889 20.9594C74.443 20.9594 75.114 21.2729 75.6631 21.8371C76.2121 22.4013 76.4561 23.1536 76.4561 24.0313ZM75.114 24.094C75.114 23.5298 74.992 23.0909 74.748 22.6521C74.504 22.1505 74.077 21.9625 73.5889 21.9625C73.0399 21.9625 72.6739 22.2132 72.3689 22.6521C72.1249 23.0282 72.0028 23.5298 72.0028 24.094C72.0028 24.6582 72.1249 25.097 72.3689 25.5359C72.6739 26.0374 73.0399 26.2255 73.5279 26.2255C74.016 26.2255 74.443 25.9747 74.687 25.4732C74.992 25.097 75.114 24.6582 75.114 24.094Z" fill="#2F2F2F"/>
<path d="M80.6674 22.2762C80.5454 22.2762 80.4234 22.2135 80.2404 22.2135C79.7524 22.2135 79.4473 22.4016 79.2033 22.7777C78.9593 23.0912 78.8983 23.4673 78.8983 23.9689V27.1034H77.6172V22.9658C77.6172 22.2762 77.6172 21.6493 77.5562 21.085H78.7153L78.7763 22.2135H78.8373C78.9593 21.8373 79.2033 21.5239 79.5083 21.2731C79.8134 21.085 80.1184 20.9597 80.4234 20.9597C80.5454 20.9597 80.6674 20.9597 80.7284 20.9597C80.6674 21.0224 80.6674 22.2762 80.6674 22.2762Z" fill="#2F2F2F"/>
<path d="M86.5254 23.8429C86.5254 24.0937 86.5254 24.2818 86.4644 24.4698H82.5601C82.5601 25.0341 82.7432 25.5356 83.1092 25.8491C83.4142 26.0998 83.8412 26.2879 84.3903 26.2879C84.9393 26.2879 85.4883 26.1625 85.9764 25.9744L86.1594 26.9148C85.6103 27.1656 84.9393 27.291 84.2073 27.291C83.2922 27.291 82.5601 27.0402 82.0721 26.476C81.5841 25.9118 81.2791 25.2221 81.2791 24.2818C81.2791 23.4041 81.5231 22.5891 82.0111 22.0249C82.4991 21.398 83.1702 21.0845 84.0852 21.0845C84.9393 21.0845 85.5493 21.398 85.9764 22.0249C86.3424 22.401 86.5254 23.0906 86.5254 23.8429ZM85.2443 23.4668C85.2443 23.0906 85.1833 22.7145 85.0003 22.4637C84.7563 22.0876 84.4513 21.8995 83.9632 21.8995C83.5362 21.8995 83.1702 22.0876 82.9262 22.4637C82.6822 22.7772 82.5601 23.0906 82.5601 23.5295L85.2443 23.4668Z" fill="#2F2F2F"/>
<path d="M41.1355 13.6248C41.1355 14.3771 40.8914 14.9413 40.4644 15.3174C40.0374 15.6309 39.4884 15.819 38.7563 15.819C38.3903 15.819 38.0853 15.819 37.8412 15.7563V11.744C38.2073 11.6813 38.5733 11.6813 38.9393 11.6813C39.6104 11.6813 40.1594 11.8067 40.5254 12.1202C40.9525 12.4963 41.1355 12.9978 41.1355 13.6248ZM40.4644 13.6248C40.4644 13.1232 40.3424 12.8098 40.0984 12.4963C39.8544 12.2456 39.4884 12.1202 39.0003 12.1202C38.8173 12.1202 38.6343 12.1202 38.5123 12.1829V15.2547C38.5733 15.2547 38.7563 15.2547 38.9393 15.2547C39.4274 15.2547 39.7934 15.1294 40.0984 14.8159C40.4034 14.5024 40.4644 14.189 40.4644 13.6248Z" fill="#2F2F2F"/>
<path d="M44.7351 14.2514C44.7351 14.6903 44.6131 15.0664 44.3691 15.3799C44.1251 15.6933 43.7591 15.8187 43.332 15.8187C42.905 15.8187 42.6 15.6933 42.295 15.3799C42.0509 15.0664 41.9289 14.753 41.9289 14.3141C41.9289 13.8753 42.0509 13.4991 42.295 13.1857C42.539 12.8722 42.905 12.7468 43.332 12.7468C43.7591 12.7468 44.0641 12.8722 44.3691 13.1857C44.6131 13.4991 44.7351 13.8126 44.7351 14.2514ZM44.0641 14.3141C44.0641 14.0634 44.0031 13.8126 43.8811 13.6245C43.7591 13.3738 43.576 13.2484 43.332 13.2484C43.088 13.2484 42.905 13.3738 42.722 13.6245C42.6 13.8126 42.539 14.0634 42.539 14.3141C42.539 14.5649 42.6 14.8157 42.722 15.0037C42.844 15.2545 43.027 15.3799 43.332 15.3799C43.576 15.3799 43.7591 15.2545 43.8811 15.0037C44.0031 14.8157 44.0641 14.5649 44.0641 14.3141Z" fill="#2F2F2F"/>
<path d="M49.5527 12.8093L48.6376 15.7558H48.0276L47.6616 14.5019C47.5395 14.1885 47.4785 13.875 47.4175 13.5616C47.3565 13.875 47.2955 14.1885 47.1735 14.5019L46.8075 15.7558H46.1975L45.3434 12.8093H46.0144L46.3195 14.1885C46.3805 14.5019 46.4415 14.8154 46.5025 15.1288C46.5635 14.8781 46.6245 14.5646 46.7465 14.1885L47.1735 12.8093H47.7226L48.0886 14.1885C48.2106 14.5019 48.2716 14.8781 48.3326 15.1915C48.3936 14.8781 48.4546 14.5646 48.5156 14.1885L48.8816 12.8093H49.5527Z" fill="#2F2F2F"/>
<path d="M52.8508 15.756H52.2408V14.0634C52.2408 13.5618 52.0578 13.3111 51.6918 13.3111C51.5088 13.3111 51.3257 13.3738 51.2037 13.4992C51.0817 13.6245 51.0207 13.8126 51.0207 14.0007V15.756H50.4107V13.6245C50.4107 13.3738 50.4107 13.0603 50.4107 12.8095H50.8987V13.2484C50.9597 13.123 51.0817 12.9976 51.2037 12.8722C51.3868 12.7469 51.5698 12.6842 51.7528 12.6842C51.9968 12.6842 52.2408 12.7469 52.4238 12.9349C52.6678 13.123 52.7288 13.4992 52.7288 13.938V15.756H52.8508V15.756Z" fill="#2F2F2F"/>
<path d="M54.6166 15.7561H54.0066V11.4931H54.6166V15.7561Z" fill="#2F2F2F"/>
<path d="M58.4011 14.2514C58.4011 14.6903 58.279 15.0664 58.035 15.3799C57.791 15.6933 57.425 15.8187 56.998 15.8187C56.5709 15.8187 56.2659 15.6933 55.9609 15.3799C55.7169 15.0664 55.5949 14.753 55.5949 14.3141C55.5949 13.8753 55.7169 13.4991 55.9609 13.1857C56.2049 12.8722 56.5709 12.7468 56.998 12.7468C57.425 12.7468 57.73 12.8722 58.035 13.1857C58.279 13.4991 58.4011 13.8126 58.4011 14.2514ZM57.73 14.3141C57.73 14.0634 57.669 13.8126 57.547 13.6245C57.425 13.3738 57.242 13.2484 56.998 13.2484C56.7539 13.2484 56.5709 13.3738 56.3879 13.6245C56.2659 13.8126 56.2049 14.0634 56.2049 14.3141C56.2049 14.5649 56.2659 14.8157 56.3879 15.0037C56.5099 15.2545 56.6929 15.3799 56.998 15.3799C57.242 15.3799 57.425 15.2545 57.547 15.0037C57.669 14.8157 57.73 14.5649 57.73 14.3141Z" fill="#2F2F2F"/>
<path d="M61.451 15.756H60.9019L60.8409 15.4426C60.6579 15.6933 60.3529 15.8187 59.9869 15.8187C59.7429 15.8187 59.4989 15.756 59.3158 15.568C59.1938 15.3799 59.0718 15.1918 59.0718 14.941C59.0718 14.5649 59.1938 14.3141 59.4989 14.1261C59.8039 13.938 60.2309 13.8126 60.7189 13.8753V13.8126C60.7189 13.4364 60.5359 13.2484 60.1089 13.2484C59.8039 13.2484 59.5599 13.3111 59.3768 13.4364L59.3158 12.9976C59.5599 12.8095 59.9259 12.7468 60.2919 12.7468C61.024 12.7468 61.39 13.123 61.39 13.938V15.0037C61.451 15.3799 61.451 15.6306 61.451 15.756ZM60.7799 14.753V14.3141C60.0479 14.3141 59.7429 14.5022 59.7429 14.8783C59.7429 15.0037 59.8039 15.1291 59.8649 15.2545C59.9259 15.3172 60.0479 15.3799 60.1699 15.3799C60.2919 15.3799 60.4139 15.3172 60.5359 15.2545C60.6579 15.1918 60.7189 15.0664 60.7799 14.8783C60.7799 14.8157 60.7799 14.8157 60.7799 14.753Z" fill="#2F2F2F"/>
<path d="M65.11 15.7561H64.561V15.2546C64.378 15.6308 64.0729 15.8188 63.6459 15.8188C63.2799 15.8188 63.0359 15.6935 62.7918 15.38C62.5478 15.0665 62.4258 14.7531 62.4258 14.3142C62.4258 13.8127 62.5478 13.4366 62.7918 13.1231C63.0359 12.8723 63.3409 12.6843 63.7069 12.6843C64.0729 12.6843 64.378 12.8096 64.5 13.0604V11.4931H65.11V15.0038C65.049 15.2546 65.11 15.5054 65.11 15.7561ZM64.439 14.5023V14.0008C64.439 13.9381 64.439 13.8754 64.439 13.8127C64.378 13.6246 64.3169 13.4992 64.1949 13.4366C64.0729 13.3112 63.9509 13.2485 63.7679 13.2485C63.5239 13.2485 63.3409 13.3739 63.2189 13.5619C63.0969 13.75 63.0359 14.0008 63.0359 14.3142C63.0359 14.6277 63.0969 14.8158 63.2189 15.0038C63.3409 15.1919 63.5239 15.3173 63.7679 15.3173C63.9509 15.3173 64.1339 15.2546 64.2559 15.0665C64.378 14.9412 64.439 14.7531 64.439 14.5023Z" fill="#2F2F2F"/>
<path d="M70.5371 14.2515C70.5371 14.6903 70.4151 15.0665 70.1711 15.3799C69.9271 15.6934 69.5611 15.8188 69.134 15.8188C68.707 15.8188 68.402 15.6934 68.097 15.3799C67.853 15.0665 67.7309 14.753 67.7309 14.3142C67.7309 13.8753 67.853 13.4992 68.097 13.1857C68.341 12.8723 68.707 12.7469 69.134 12.7469C69.5611 12.7469 69.8661 12.8723 70.1711 13.1857C70.4151 13.4992 70.5371 13.8127 70.5371 14.2515ZM69.9271 14.3142C69.9271 14.0634 69.8661 13.8127 69.7441 13.6246C69.6221 13.3738 69.4391 13.2484 69.195 13.2484C68.951 13.2484 68.768 13.3738 68.585 13.6246C68.463 13.8127 68.402 14.0634 68.402 14.3142C68.402 14.565 68.463 14.8157 68.585 15.0038C68.707 15.2546 68.89 15.3799 69.195 15.3799C69.4391 15.3799 69.6221 15.2546 69.7441 15.0038C69.8661 14.8157 69.9271 14.565 69.9271 14.3142Z" fill="#2F2F2F"/>
<path d="M74.0154 15.756H73.4054V14.0634C73.4054 13.5618 73.2224 13.3111 72.7954 13.3111C72.6123 13.3111 72.4293 13.3738 72.3073 13.4992C72.1853 13.6245 72.1243 13.8126 72.1243 14.0007V15.756H71.5143V13.6245C71.5143 13.3738 71.5143 13.0603 71.5143 12.8095H72.0633V13.2484C72.1243 13.123 72.2463 12.9976 72.3683 12.8722C72.5513 12.7469 72.7344 12.6842 72.9784 12.6842C73.2224 12.6842 73.4664 12.7469 73.6494 12.9349C73.8934 13.123 73.9544 13.4992 73.9544 13.938V15.756H74.0154V15.756Z" fill="#2F2F2F"/>
<path d="M78.2842 13.3109H77.5521V14.7528C77.5521 15.129 77.6741 15.3171 77.9181 15.3171C78.0401 15.3171 78.1012 15.3171 78.2232 15.3171V15.8186C78.1012 15.8813 77.9181 15.8813 77.7351 15.8813C77.4911 15.8813 77.3081 15.8186 77.1251 15.6305C77.0031 15.4424 76.9421 15.1917 76.9421 14.8155V13.3109H76.515V12.8094H76.9421V12.3079L77.5521 12.1198V12.8721H78.2842V13.3109Z" fill="#2F2F2F"/>
<path d="M81.6999 15.7561H81.0899V14.0635C81.0899 13.5619 80.9069 13.2485 80.5409 13.2485C80.2359 13.2485 80.0528 13.3739 79.9308 13.6873C79.9308 13.75 79.9308 13.8127 79.9308 13.9381V15.6935H79.3208V11.4931H79.9308V13.2485C80.1138 12.935 80.4189 12.7469 80.7849 12.7469C81.0289 12.7469 81.2729 12.8096 81.4559 12.9977C81.6999 13.2485 81.761 13.5619 81.761 14.0008C81.6999 14.0008 81.6999 15.7561 81.6999 15.7561Z" fill="#2F2F2F"/>
<path d="M85.178 14.1887C85.178 14.3141 85.178 14.3768 85.178 14.5022H83.2258C83.2258 14.8156 83.3479 15.0037 83.5309 15.1918C83.7139 15.3172 83.8969 15.3799 84.1409 15.3799C84.4459 15.3799 84.6899 15.3172 84.934 15.2545L85.056 15.6933C84.812 15.8187 84.4459 15.8814 84.0799 15.8814C83.6529 15.8814 83.2869 15.756 83.0428 15.5052C82.7988 15.2545 82.6768 14.8783 82.6768 14.4395C82.6768 14.0006 82.7988 13.6245 83.0428 13.311C83.2869 12.9976 83.6529 12.8095 84.0189 12.8095C84.4459 12.8095 84.751 12.9976 84.934 13.311C85.117 13.4991 85.178 13.8126 85.178 14.1887ZM84.5679 14.0006C84.5679 13.8126 84.5069 13.6245 84.4459 13.4991C84.3239 13.311 84.1409 13.2484 83.9579 13.2484C83.7749 13.2484 83.5919 13.311 83.4699 13.4991C83.3479 13.6245 83.2869 13.8126 83.2869 14.0006C83.2258 14.0006 84.5679 14.0006 84.5679 14.0006Z" fill="#2F2F2F"/>
</svg>
