<svg width="64" height="65" viewBox="0 0 64 65" fill="none" xmlns="http://www.w3.org/2000/svg">
<path fill-rule="evenodd" clip-rule="evenodd" d="M42.3719 0.0846032C40.9162 0.45298 40.667 0.65985 35.7385 5.59449C32.5728 8.76413 31.0016 10.4251 30.9451 10.6615C30.8393 11.1048 31.0906 11.7306 31.4759 11.9841C31.6379 12.0906 31.9776 12.1776 32.2312 12.1776C32.6684 12.1776 32.9303 11.9397 37.2664 7.60525C39.7821 5.09053 42.0399 2.92767 42.2836 2.79908C42.8897 2.47899 44.3324 2.47797 44.9421 2.79704C45.6155 3.14941 60.9377 18.5802 61.2609 19.2313C61.5816 19.8774 61.6136 20.9701 61.3322 21.6548C61.1948 21.9886 57.3607 25.9199 48.261 35.0569C36.5258 46.8402 35.3292 48.0049 34.7661 48.1926C34.0683 48.4253 33.1546 48.3709 32.5577 48.061C32.3535 47.955 31.864 47.5725 31.4697 47.2109L30.7532 46.5535L33.9247 43.3413C36.7249 40.5054 37.1443 40.0275 37.5062 39.2607C37.8872 38.4532 37.916 38.2985 37.916 37.058C37.916 35.8856 37.8761 35.639 37.5872 35.0248C36.6238 32.9771 34.3796 31.7492 32.2392 32.0989C30.7047 32.3496 30.3072 32.6383 27.1518 35.7943L24.2365 38.7099H23.6016H22.9666L19.7276 35.4378C17.6628 33.3521 16.3865 31.9628 16.2073 31.6059C15.8275 30.8498 15.827 29.7982 16.2063 29.0406C16.3922 28.6689 17.9799 26.9755 20.9283 24.0038C25.0764 19.8229 25.3701 19.4974 25.3701 19.0806C25.3701 18.187 24.4786 17.5357 23.6989 17.8598C23.4993 17.9429 21.3076 20.052 18.8286 22.5469C14.691 26.7108 14.2869 27.1559 13.9019 27.9724C13.5029 28.8189 13.4826 28.9327 13.4826 30.3232C13.4826 31.7121 13.5033 31.8284 13.8994 32.6679C14.267 33.4473 14.6504 33.8888 17.154 36.4171L19.9919 39.283L19.3959 39.5217C18.4277 39.9094 16.9931 40.8515 16.1143 41.6766C14.048 43.6168 12.8745 46.2027 12.7033 49.1932L12.6306 50.4639L6.31532 56.8203L0 63.1767V63.7197C0 64.6144 0.837443 65.2224 1.62121 64.8965C1.81389 64.8165 4.9292 61.7818 8.54419 58.1528L15.117 51.5545L15.2039 49.8502C15.2528 48.891 15.3849 47.8193 15.5059 47.3988C16.2765 44.7228 18.4607 42.431 21.0152 41.618C21.5487 41.4482 22.4207 41.3208 23.495 41.2556C24.4062 41.2005 25.2608 41.0947 25.3939 41.0206C25.5271 40.9467 26.9178 39.592 28.4844 38.0102C31.2609 35.2071 31.7927 34.767 32.6199 34.5878C33.4828 34.4009 34.6735 34.9951 35.1584 35.8546C35.4729 36.4118 35.5442 37.4201 35.3124 38.0345C35.2382 38.2312 33.1588 40.4262 30.6915 42.9123L26.2057 47.4325V48.0156C26.2057 48.5108 26.2644 48.6484 26.5952 48.9277C27.1767 49.4188 27.7923 49.377 28.4628 48.8012L28.9931 48.3455L29.8637 49.1547C31.3799 50.5636 32.9684 51.1038 34.7129 50.8035C36.3725 50.5179 36.8334 50.1802 40.3614 46.6669C42.5449 44.4925 43.5204 43.5965 43.4222 43.8562C43.3428 44.0659 42.5647 46.1816 41.6931 48.5578C40.7835 51.0376 39.8934 53.2465 39.604 53.7424C38.6844 55.3182 36.9789 56.7794 35.3412 57.3943C34.9493 57.5416 32.2355 58.3413 29.3106 59.1717L23.9925 60.6816L22.83 61.8656C22.1899 62.5176 21.6284 63.2055 21.5808 63.3962C21.3414 64.3535 22.1676 65.1972 23.1115 64.9594C23.2896 64.9144 23.902 64.4294 24.4724 63.8813L25.5094 62.885L30.3201 61.5257C32.966 60.778 35.5186 60.0321 35.9924 59.8681C38.4134 59.0303 40.8074 56.9386 42.0167 54.605C42.2915 54.0746 43.7127 50.3874 45.1748 46.4114L47.8332 39.1821L55.4858 31.4806C64.4725 22.4364 63.995 23.0503 63.995 20.5388C63.995 18.0215 64.5014 18.6695 55.2753 9.3803C50.9498 5.02535 47.152 1.26953 46.8358 1.03407C45.9598 0.381948 45.0283 0.0600787 43.866 0.00810699C43.309 -0.0167988 42.6367 0.0176372 42.3719 0.0846032ZM42.9615 9.22934C41.6464 9.50381 40.4033 10.491 39.7872 11.7502C39.4772 12.384 39.4351 12.614 39.4353 13.677C39.4354 15.1209 39.6693 15.7422 40.5815 16.721C41.4251 17.6264 42.3142 18.0317 43.5992 18.0971C44.4275 18.1391 44.7637 18.0968 45.3413 17.8782C48.4661 16.695 49.3199 12.8409 46.9778 10.4901C45.9343 9.44269 44.3389 8.9419 42.9615 9.22934ZM44.8788 12.0058C45.7356 12.4925 46.0516 13.9046 45.4778 14.6826C44.3062 16.2708 41.9059 15.6125 41.9043 13.7025C41.9029 12.1079 43.4773 11.21 44.8788 12.0058ZM27.6399 13.8623C26.471 14.3726 26.8461 16.2185 28.1186 16.2185C28.8258 16.2185 29.3706 15.7139 29.3706 15.0591C29.3706 14.4338 29.091 13.991 28.5838 13.8136C28.1092 13.6476 28.1347 13.6463 27.6399 13.8623ZM54.3736 19.2554C54.1647 19.3876 50.9887 22.5194 47.3158 26.2148L40.6378 32.9338V33.4769C40.6378 34.3135 41.4006 34.9275 42.1886 34.7251C42.3454 34.6849 45.5641 31.5468 49.3414 27.7515C55.9995 21.0617 56.2093 20.8363 56.2093 20.3689C56.2093 19.7543 56.0424 19.4465 55.5788 19.2059C55.093 18.9538 54.8333 18.9644 54.3736 19.2554ZM25.1002 26.1617C23.753 27.5071 22.6184 28.7364 22.5788 28.8937C22.3795 29.686 22.9902 30.4503 23.8226 30.4503C24.3553 30.4503 24.3964 30.4166 26.8035 28.0007C29.2162 25.579 29.244 25.5446 29.244 25.0047C29.244 24.2662 28.7242 23.7156 28.0268 23.7156C27.5765 23.7156 27.4125 23.8526 25.1002 26.1617Z" fill="#EF9B11"/>
</svg>
