<svg width="64" height="67" viewBox="0 0 64 67" fill="none" xmlns="http://www.w3.org/2000/svg">
<path fill-rule="evenodd" clip-rule="evenodd" d="M5.96804 0.20484C3.24214 0.890395 1.25553 2.80148 0.279305 5.67732C0.0104443 6.46955 0 7.50731 0 33.5065C0 59.5057 0.0104443 60.5435 0.279305 61.3357C1.149 63.8978 2.84989 65.7106 5.22785 66.6101L6.11724 66.9464L18.5009 66.9894C25.312 67.0129 31.0305 66.9961 31.2088 66.952C31.7891 66.8083 32.4384 66.1283 32.6118 65.4827C32.8272 64.6803 32.6147 63.9428 31.9972 63.3493L31.5366 62.9067L19.2745 62.8319C5.83346 62.7499 6.58872 62.8035 5.4618 61.8507C5.18339 61.6153 4.79801 61.0833 4.60539 60.6685L4.25521 59.9143V33.5065V7.0987L4.60539 6.34447C5.23949 4.97889 6.24526 4.37488 8.12758 4.22945L9.30149 4.13863L10.2106 5.95725C11.2987 8.13377 11.8704 8.8072 13.1795 9.45371L14.1671 9.94147L21.4427 9.9868C26.0963 10.0157 29.0244 9.97528 29.5679 9.87444C31.5639 9.50443 32.5269 8.64442 33.8486 6.05136L34.7638 4.25593L35.974 4.27972C37.7332 4.31428 38.8525 4.97515 39.4817 6.3506C39.7397 6.91437 39.756 7.62461 39.7624 18.6194C39.7663 25.1935 39.8294 30.5511 39.9069 30.8882C40.0794 31.6378 40.8542 32.3787 41.6152 32.5219C42.0505 32.6037 42.3324 32.5498 42.8716 32.2814C44.1693 31.6357 44.0888 32.5216 44.0865 18.9186C44.0843 5.72983 44.0958 5.91327 43.1559 4.12023C42.5451 2.95454 41.1352 1.54034 39.9738 0.928249C38.1212 -0.0481669 38.874 -0.00956505 22.0131 0.00449917C10.2794 0.0142244 6.54023 0.0609058 5.96804 0.20484ZM44.4619 34.5414C37.3365 36.0376 32.1768 41.7645 31.3886 49.0514C30.7632 54.835 33.5744 60.8792 38.4272 64.1839C39.7794 65.1048 41.934 66.0828 43.6 66.5321C44.9129 66.8863 45.3197 66.9255 47.6697 66.9255C50.0319 66.9255 50.4226 66.8873 51.7693 66.5245C61.4637 63.913 66.5842 53.4288 62.689 44.1672C60.7949 39.6633 56.697 36.113 51.8474 34.7747C49.8827 34.2325 46.4499 34.124 44.4619 34.5414ZM48.6782 40.2386C49.3441 40.6457 49.7573 41.376 49.7579 42.147L49.7585 42.7829H50.3628C51.0584 42.7829 51.6195 43.0388 52.1334 43.5904C52.6392 44.1334 52.7281 45.3623 52.3099 46.0298C51.7947 46.8521 51.2582 47.0314 49.1216 47.0951C47.4228 47.146 47.1997 47.1835 47.0619 47.4419C46.8499 47.8391 47.0253 48.304 47.4186 48.3865C47.5977 48.4239 48.1073 48.5266 48.5511 48.6146C50.951 49.0906 52.5934 51.0678 52.5934 53.4807C52.5934 55.1844 51.7222 56.8048 50.3336 57.6838C49.7756 58.037 49.7585 58.0731 49.7579 58.9063C49.7565 61.1632 47.5353 62.1323 46.0409 60.5282C45.7774 60.2454 45.6619 59.919 45.6121 59.317L45.5439 58.4929H45.0354C44.317 58.4929 43.6194 58.1641 43.1494 57.604C42.4083 56.7208 42.7007 55.1817 43.7392 54.4987C44.0704 54.281 44.5337 54.2188 46.1361 54.1766C47.919 54.1299 48.1384 54.0947 48.2774 53.8344C48.4896 53.4367 48.3143 52.9718 47.9208 52.8894C47.7418 52.852 47.2405 52.751 46.8069 52.6653C45.2595 52.359 44.0155 51.4542 43.259 50.0849C42.8561 49.3552 42.8207 49.1709 42.8208 47.7952C42.8208 46.4641 42.8647 46.2158 43.2177 45.5449C43.6061 44.807 44.6242 43.7346 45.261 43.3929C45.5363 43.2451 45.5809 43.0893 45.5809 42.2742C45.5809 41.53 45.65 41.239 45.9033 40.916C46.6559 39.9566 47.7715 39.6841 48.6782 40.2386ZM18.7993 54.2636C17.454 54.6013 16.8003 56.3034 17.5714 57.4609C18.203 58.409 18.5681 58.4925 22.0841 58.4926C24.8256 58.4929 25.2849 58.4587 25.7396 58.2209C26.453 57.8475 26.9882 56.7826 26.8456 56.0203C26.7095 55.2927 25.9996 54.4988 25.3146 54.3081C24.7715 54.1568 19.3715 54.12 18.7993 54.2636Z" fill="#EF9B11"/>
</svg>
