<svg width="106" height="42" viewBox="0 0 106 42" fill="none" xmlns="http://www.w3.org/2000/svg">
<rect x="0.763351" y="0.91745" width="104.977" height="40.8759" rx="10" fill="white"/>
<path d="M40.3413 15.0459C40.3413 15.5432 40.1578 15.9783 39.9131 16.2891C39.546 16.6621 39.1177 16.8486 38.5671 16.8486C38.0164 16.8486 37.5881 16.6621 37.221 16.2891C36.854 15.9162 36.6704 15.481 36.6704 14.9215C36.6704 14.3621 36.854 13.9269 37.221 13.5539C37.5881 13.181 38.0164 12.9945 38.5671 12.9945C38.8118 12.9945 39.0565 13.0566 39.3012 13.181C39.546 13.3053 39.7295 13.4296 39.8519 13.6161L39.546 13.9269C39.3012 13.6161 38.9953 13.4918 38.5059 13.4918C38.1388 13.4918 37.7717 13.6161 37.527 13.9269C37.221 14.1756 37.0987 14.5486 37.0987 14.9837C37.0987 15.4188 37.221 15.7918 37.527 16.0405C37.8329 16.2891 38.1388 16.4756 38.5059 16.4756C38.9341 16.4756 39.2401 16.3513 39.546 16.0405C39.7295 15.854 39.8519 15.6053 39.8519 15.2945H38.5059V14.8594H40.2802C40.3413 14.8594 40.3413 14.9837 40.3413 15.0459Z" fill="#2F2F2F"/>
<path d="M43.2137 13.4912H41.5617V14.6723H43.0913V15.1074H41.5617V16.2885H43.2137V16.7237H41.0723V13.056H43.2137C43.2137 13.056 43.2137 13.4912 43.2137 13.4912Z" fill="#2F2F2F"/>
<path d="M45.1706 16.7237H44.6811V13.4912H43.7022V13.056H46.2107V13.4912H45.1706C45.1706 13.4912 45.1706 16.7237 45.1706 16.7237Z" fill="#2F2F2F"/>
<path d="M48.052 16.7237V13.056H48.5415V16.7237H48.052Z" fill="#2F2F2F"/>
<path d="M50.6227 16.7239H50.1332V13.4915H49.0931V13.0563H51.6628V13.4915H50.6227C50.6227 13.4915 50.6227 16.7239 50.6227 16.7239Z" fill="#2F2F2F"/>
<path d="M56.4316 16.2895C56.0645 16.6625 55.6362 16.8489 55.0855 16.8489C54.5349 16.8489 54.1066 16.6625 53.7395 16.2895C53.3724 15.9165 53.1889 15.4814 53.1889 14.9219C53.1889 14.3624 53.3724 13.9273 53.7395 13.5543C54.1066 13.1813 54.5349 12.9948 55.0855 12.9948C55.6362 12.9948 56.0645 13.1813 56.4316 13.5543C56.7986 13.9273 56.9822 14.3624 56.9822 14.9219C56.9822 15.4192 56.7986 15.9165 56.4316 16.2895ZM54.0454 15.9787C54.2902 16.2273 54.6573 16.4138 55.0244 16.4138C55.3915 16.4138 55.7585 16.2895 56.0033 15.9787C56.248 15.73 56.4316 15.357 56.4316 14.9219C56.4316 14.4867 56.3092 14.1138 56.0033 13.8651C55.7585 13.6164 55.3915 13.43 55.0244 13.43C54.6573 13.43 54.2902 13.5543 54.0454 13.8651C53.8007 14.1138 53.6172 14.4867 53.6172 14.9219C53.6784 15.357 53.8007 15.6678 54.0454 15.9787Z" fill="#2F2F2F"/>
<path d="M57.6595 16.7237V13.056H58.2101L59.9844 15.9156V15.2318V13.056H60.4739V16.7237H59.9844L58.0878 13.7398V14.4236V16.7237H57.6595Z" fill="#2F2F2F"/>
<path d="M53.1896 22.1325C51.7212 22.1325 50.5588 23.2514 50.5588 24.7433C50.5588 26.2352 51.7212 27.3542 53.1896 27.3542C54.658 27.3542 55.8204 26.2352 55.8204 24.7433C55.8204 23.2514 54.658 22.1325 53.1896 22.1325ZM53.1896 26.3596C52.3942 26.3596 51.7212 25.6758 51.7212 24.7433C51.7212 23.8109 52.3942 23.1271 53.1896 23.1271C53.985 23.1271 54.658 23.7487 54.658 24.7433C54.658 25.6758 53.985 26.3596 53.1896 26.3596ZM47.4997 22.1325C46.0313 22.1325 44.8688 23.2514 44.8688 24.7433C44.8688 26.2352 46.0313 27.3542 47.4997 27.3542C48.968 27.3542 50.1305 26.2352 50.1305 24.7433C50.0693 23.2514 48.9068 22.1325 47.4997 22.1325ZM47.4997 26.3596C46.7043 26.3596 46.0313 25.6758 46.0313 24.7433C46.0313 23.8109 46.7043 23.1271 47.4997 23.1271C48.295 23.1271 48.968 23.7487 48.968 24.7433C48.968 25.6758 48.295 26.3596 47.4997 26.3596ZM40.7085 22.9406V24.0595H43.3393C43.2781 24.6811 43.0334 25.1163 42.7275 25.4271C42.3604 25.8001 41.7485 26.2352 40.7085 26.2352C39.0565 26.2352 37.8329 24.9298 37.8329 23.2514C37.8329 21.573 39.1177 20.2675 40.7085 20.2675C41.565 20.2675 42.238 20.6405 42.7275 21.0757L43.5228 20.2675C42.8498 19.6459 41.9933 19.1486 40.7696 19.1486C38.5059 19.1486 36.6704 20.9513 36.6704 23.1892C36.6704 25.4271 38.5671 27.2298 40.7696 27.2298C41.9933 27.2298 42.911 26.8569 43.584 26.1109C44.3182 25.3649 44.5629 24.3703 44.5629 23.5C44.5629 23.2514 44.5629 23.0027 44.5017 22.8162C44.3794 22.9406 40.7085 22.9406 40.7085 22.9406ZM68.4851 23.8109C68.2404 23.2514 67.6286 22.1325 66.2214 22.1325C64.8754 22.1325 63.7741 23.1892 63.7741 24.7433C63.7741 26.2352 64.8754 27.3542 66.3437 27.3542C67.5674 27.3542 68.2404 26.6082 68.5463 26.1731L67.6286 25.5514C67.3227 25.9866 66.9556 26.2974 66.3437 26.2974C65.7931 26.2974 65.3648 26.0487 65.0589 25.4893L68.5463 24.0595C68.6075 24.1217 68.4851 23.8109 68.4851 23.8109ZM64.9366 24.6811C64.9366 23.6865 65.7319 23.1271 66.2826 23.1271C66.7108 23.1271 67.1391 23.3757 67.2615 23.6865L64.9366 24.6811ZM62.061 27.2298H63.2235V19.5216H62.061V27.2298ZM60.2255 22.6919C59.9196 22.3811 59.4302 22.1325 58.8183 22.1325C57.5335 22.1325 56.3099 23.3136 56.3099 24.7433C56.3099 26.2352 57.5335 27.3542 58.8183 27.3542C59.4302 27.3542 59.9196 27.1055 60.1643 26.7325H60.2255V27.1055C60.2255 28.1001 59.6749 28.6596 58.8183 28.6596C58.1453 28.6596 57.6559 28.1623 57.5335 27.7272L56.5546 28.1623C56.8605 28.8461 57.5947 29.7164 58.8795 29.7164C60.2255 29.7164 61.388 28.9083 61.388 26.9812V22.2568H60.2867L60.2255 22.6919ZM58.8795 26.3596C58.0842 26.3596 57.4112 25.6758 57.4112 24.8055C57.4112 23.873 58.0842 23.1892 58.8795 23.1892C59.6749 23.1892 60.2867 23.873 60.2867 24.8055C60.2867 25.6758 59.6749 26.3596 58.8795 26.3596ZM73.808 19.5216H71.0548V27.2298H72.2172V24.3082H73.808C75.0928 24.3082 76.3164 23.3757 76.3164 21.946C76.3776 20.454 75.0928 19.5216 73.808 19.5216ZM73.8691 23.2514H72.2172V20.5784H73.8691C74.7257 20.5784 75.2151 21.2622 75.2151 21.8838C75.2151 22.5054 74.7257 23.2514 73.8691 23.2514ZM80.9663 22.1325C80.1097 22.1325 79.2532 22.5054 78.9473 23.3136L79.9873 23.7487C80.2321 23.3136 80.5992 23.1892 81.0274 23.1892C81.6393 23.1892 82.2511 23.5622 82.2511 24.1838V24.246C82.0675 24.1217 81.5781 23.9352 81.0274 23.9352C79.9262 23.9352 78.8249 24.5568 78.8249 25.6758C78.8249 26.7325 79.7426 27.3542 80.7215 27.3542C81.5169 27.3542 81.9452 26.9812 82.1899 26.6082H82.2511V27.2298H83.3524V24.246C83.2912 22.8784 82.2511 22.1325 80.9663 22.1325ZM80.7827 26.3596C80.4156 26.3596 79.865 26.1731 79.865 25.7379C79.865 25.1163 80.538 24.9298 81.0886 24.9298C81.5781 24.9298 81.8228 25.0541 82.1287 25.1785C82.0675 25.8623 81.4557 26.3596 80.7827 26.3596ZM87.268 22.3189L85.9832 25.6758H85.922L84.576 22.3189H83.3524L85.3714 26.9812L84.2089 29.5921H85.4325L88.5528 22.3189H87.268ZM76.9894 27.2298H78.1519V19.5216H76.9894V27.2298Z" fill="#2F2F2F"/>
<path d="M17.789 13.5236C17.6067 13.7089 17.4852 14.0176 17.4852 14.388V27.91C17.4852 28.2805 17.6067 28.5892 17.789 28.7745L17.8498 28.8362L25.3852 21.2417V21.0564L17.789 13.5236Z" fill="url(#paint0_linear_1_55)"/>
<path d="M27.8769 23.773L25.3853 21.2415V21.0563L27.8769 18.5248L27.9377 18.5865L30.9154 20.3153C31.7661 20.8093 31.7661 21.612 30.9154 22.1059L27.8769 23.773C27.8769 23.773 27.9377 23.773 27.8769 23.773Z" fill="url(#paint1_linear_1_55)"/>
<path d="M27.9377 23.7726L25.3854 21.1793L17.7892 28.7739C18.0931 29.0826 18.5185 29.0826 19.0654 28.8356L27.9377 23.7726Z" fill="url(#paint2_linear_1_55)"/>
<path d="M27.9377 18.5865L19.0654 13.5234C18.5185 13.2147 18.0931 13.2765 17.7892 13.5852L25.3854 21.1797L27.9377 18.5865Z" fill="url(#paint3_linear_1_55)"/>
<defs>
<linearGradient id="paint0_linear_1_55" x1="24.7048" y1="28.0465" x2="14.4391" y2="17.8234" gradientUnits="userSpaceOnUse">
<stop stop-color="#00A0FF"/>
<stop offset="0.0066" stop-color="#00A1FF"/>
<stop offset="0.2601" stop-color="#00BEFF"/>
<stop offset="0.5122" stop-color="#00D2FF"/>
<stop offset="0.7604" stop-color="#00DFFF"/>
<stop offset="1" stop-color="#00E3FF"/>
</linearGradient>
<linearGradient id="paint1_linear_1_55" x1="32.0187" y1="21.1489" x2="17.2791" y2="21.1489" gradientUnits="userSpaceOnUse">
<stop stop-color="#FFE000"/>
<stop offset="0.4087" stop-color="#FFBD00"/>
<stop offset="0.7754" stop-color="#FFA500"/>
<stop offset="1" stop-color="#FF9C00"/>
</linearGradient>
<linearGradient id="paint2_linear_1_55" x1="21.4583" y1="24.847" x2="7.53718" y2="10.9839" gradientUnits="userSpaceOnUse">
<stop stop-color="#FF3A44"/>
<stop offset="1" stop-color="#C31162"/>
</linearGradient>
<linearGradient id="paint3_linear_1_55" x1="10.803" y1="28.2117" x2="17.0194" y2="22.0212" gradientUnits="userSpaceOnUse">
<stop stop-color="#32A071"/>
<stop offset="0.0685" stop-color="#2DA771"/>
<stop offset="0.4762" stop-color="#15CF74"/>
<stop offset="0.8009" stop-color="#06E775"/>
<stop offset="1" stop-color="#00F076"/>
</linearGradient>
</defs>
</svg>
