<svg width="200" height="60" viewBox="0 0 200 60" fill="none" xmlns="http://www.w3.org/2000/svg">
<rect width="200" height="60" rx="10" fill="#EF9B11"/>
<path d="M74.903 19.4163C74.903 20.487 74.5078 21.4238 73.981 22.0929C73.1907 22.8959 72.2686 23.2974 71.0832 23.2974C69.8978 23.2974 68.9757 22.8959 68.1854 22.0929C67.3952 21.2899 67 20.3531 67 19.1487C67 17.9442 67.3952 17.0074 68.1854 16.2044C68.9757 15.4015 69.8978 15 71.0832 15C71.6101 15 72.1369 15.1338 72.6638 15.4015C73.1907 15.6691 73.5858 15.9368 73.8492 16.3383L73.1907 17.0074C72.6638 16.3383 72.0052 16.0706 70.9515 16.0706C70.1612 16.0706 69.3709 16.3383 68.844 17.0074C68.1854 17.5427 67.922 18.3457 67.922 19.2825C67.922 20.2193 68.1854 21.0223 68.844 21.5576C69.5026 22.0929 70.1612 22.4944 70.9515 22.4944C71.8735 22.4944 72.5321 22.2267 73.1907 21.5576C73.5858 21.1561 73.8492 20.6208 73.8492 19.9516H70.9515V19.0148H74.7713C74.903 19.0148 74.903 19.2825 74.903 19.4163Z" fill="#2F2F2F"/>
<path d="M81.0905 16.0692H77.5342V18.612H80.8271V19.5488H77.5342V22.0915H81.0905V23.0283H76.4805V15.1324H81.0905V16.0692Z" fill="#2F2F2F"/>
<path d="M85.3057 23.0283H84.252V16.0692H82.1445V15.1324H87.5449V16.0692H85.3057V23.0283Z" fill="#2F2F2F"/>
<path d="M91.5039 23.0283V15.1324H92.5576V23.0283H91.5039Z" fill="#2F2F2F"/>
<path d="M97.0351 23.0288H95.9814V16.0697H93.7422V15.1329H99.2743V16.0697H97.0351V23.0288Z" fill="#2F2F2F"/>
<path d="M109.547 22.0934C108.757 22.8964 107.835 23.2979 106.65 23.2979C105.464 23.2979 104.542 22.8964 103.752 22.0934C102.962 21.2904 102.566 20.3536 102.566 19.1492C102.566 17.9447 102.962 17.0079 103.752 16.2049C104.542 15.4019 105.464 15.0005 106.65 15.0005C107.835 15.0005 108.757 15.4019 109.547 16.2049C110.338 17.0079 110.733 17.9447 110.733 19.1492C110.733 20.2198 110.338 21.2904 109.547 22.0934ZM104.41 21.4242C104.937 21.9596 105.728 22.361 106.518 22.361C107.308 22.361 108.098 22.0934 108.625 21.4242C109.152 20.8889 109.547 20.086 109.547 19.1492C109.547 18.2124 109.284 17.4094 108.625 16.8741C108.098 16.3387 107.308 15.9373 106.518 15.9373C105.728 15.9373 104.937 16.2049 104.41 16.8741C103.884 17.4094 103.488 18.2124 103.488 19.1492C103.62 20.086 103.884 20.7551 104.41 21.4242Z" fill="#2F2F2F"/>
<path d="M112.184 23.0283V15.1324H113.369L117.189 21.2885V19.8164V15.1324H118.243V23.0283H117.189L113.106 16.6045V18.0766V23.0283H112.184Z" fill="#2F2F2F"/>
<path d="M102.567 34.6728C99.4061 34.6728 96.9035 37.0817 96.9035 40.2936C96.9035 43.5055 99.4061 45.9144 102.567 45.9144C105.728 45.9144 108.231 43.5055 108.231 40.2936C108.231 37.0817 105.728 34.6728 102.567 34.6728ZM102.567 43.7732C100.855 43.7732 99.4061 42.3011 99.4061 40.2936C99.4061 38.2862 100.855 36.8141 102.567 36.8141C104.28 36.8141 105.728 38.1524 105.728 40.2936C105.728 42.3011 104.28 43.7732 102.567 43.7732ZM90.3177 34.6728C87.1565 34.6728 84.6539 37.0817 84.6539 40.2936C84.6539 43.5055 87.1565 45.9144 90.3177 45.9144C93.4789 45.9144 95.9815 43.5055 95.9815 40.2936C95.8498 37.0817 93.3472 34.6728 90.3177 34.6728ZM90.3177 43.7732C88.6054 43.7732 87.1565 42.3011 87.1565 40.2936C87.1565 38.2862 88.6054 36.8141 90.3177 36.8141C92.03 36.8141 93.4789 38.1524 93.4789 40.2936C93.4789 42.3011 92.03 43.7732 90.3177 43.7732ZM75.6972 36.4126V38.8215H81.361C81.2293 40.1598 80.7024 41.0966 80.0438 41.7658C79.2535 42.5687 77.9364 43.5055 75.6972 43.5055C72.1408 43.5055 69.5065 40.6951 69.5065 37.0817C69.5065 33.4684 72.2726 30.6579 75.6972 30.6579C77.5412 30.6579 78.9901 31.4609 80.0438 32.3977L81.7561 30.6579C80.3073 29.3197 78.4632 28.249 75.8289 28.249C70.9554 28.249 67.0039 32.1301 67.0039 36.9479C67.0039 41.7657 71.0871 45.6468 75.8289 45.6468C78.4632 45.6468 80.439 44.8438 81.8878 43.2379C83.4684 41.6319 83.9953 39.4907 83.9953 37.617C83.9953 37.0817 83.9953 36.5464 83.8636 36.1449C83.6002 36.4126 75.6972 36.4126 75.6972 36.4126ZM135.496 38.2862C134.97 37.0817 133.652 34.6728 130.623 34.6728C127.725 34.6728 125.354 36.9479 125.354 40.2936C125.354 43.5055 127.725 45.9144 130.886 45.9144C133.521 45.9144 134.969 44.3085 135.628 43.3717L133.652 42.0334C132.994 42.9702 132.203 43.6394 130.886 43.6394C129.701 43.6394 128.779 43.104 128.12 41.8996L135.628 38.8215C135.76 38.9553 135.496 38.2862 135.496 38.2862ZM127.857 40.1598C127.857 38.0185 129.569 36.8141 130.755 36.8141C131.677 36.8141 132.599 37.3494 132.862 38.0185L127.857 40.1598ZM121.666 45.6468H124.169V29.052H121.666V45.6468ZM117.715 35.8773C117.056 35.2081 116.002 34.6728 114.685 34.6728C111.919 34.6728 109.285 37.2156 109.285 40.2936C109.285 43.5055 111.919 45.9144 114.685 45.9144C116.002 45.9144 117.056 45.3791 117.583 44.5762H117.715V45.3791C117.715 47.5204 116.529 48.7249 114.685 48.7249C113.236 48.7249 112.183 47.6542 111.919 46.7174L109.812 47.6542C110.47 49.1263 112.051 50.9999 114.817 50.9999C117.715 50.9999 120.217 49.2602 120.217 45.1115V34.9405H117.846L117.715 35.8773ZM114.817 43.7732C113.105 43.7732 111.656 42.3011 111.656 40.4275C111.656 38.42 113.105 36.9479 114.817 36.9479C116.529 36.9479 117.846 38.42 117.846 40.4275C117.846 42.3011 116.529 43.7732 114.817 43.7732ZM146.956 29.052H141.028V45.6468H143.531V39.3568H146.956C149.722 39.3568 152.356 37.3494 152.356 34.2713C152.488 31.0594 149.722 29.052 146.956 29.052ZM147.087 37.0817H143.531V31.3271H147.087C148.931 31.3271 149.985 32.7992 149.985 34.1375C149.985 35.4758 148.931 37.0817 147.087 37.0817ZM162.366 34.6728C160.522 34.6728 158.678 35.4758 158.02 37.2156L160.259 38.1524C160.786 37.2156 161.576 36.9479 162.498 36.9479C163.815 36.9479 165.133 37.7509 165.133 39.0892V39.223C164.737 38.9553 163.684 38.5539 162.498 38.5539C160.127 38.5539 157.756 39.8921 157.756 42.3011C157.756 44.5762 159.732 45.9144 161.84 45.9144C163.552 45.9144 164.474 45.1115 165.001 44.3085H165.133V45.6468H167.503V39.223C167.372 36.2788 165.133 34.6728 162.366 34.6728ZM161.971 43.7732C161.181 43.7732 159.996 43.3717 159.996 42.4349C159.996 41.0966 161.444 40.6951 162.63 40.6951C163.684 40.6951 164.211 40.9628 164.869 41.2304C164.737 42.7026 163.42 43.7732 161.971 43.7732ZM175.933 35.0743L173.167 42.3011H173.035L170.138 35.0743H167.503L171.85 45.1115L169.347 50.7323H171.982L178.699 35.0743H175.933ZM153.805 45.6468H156.308V29.052H153.805V45.6468Z" fill="#2F2F2F"/>
<path d="M23.6541 15.4373C23.2617 15.836 23 16.5007 23 17.2982V46.4092C23 47.2067 23.2617 47.8714 23.6541 48.2701L23.785 48.4031L40.0077 32.0531V31.6543L23.6541 15.4373Z" fill="url(#paint0_linear_504_940)"/>
<path d="M45.3718 37.5029L40.0078 32.0529V31.6541L45.3718 26.2041L45.5026 26.337L51.9132 30.059C53.7448 31.1224 53.7448 32.8504 51.9132 33.9139L45.3718 37.5029C45.5026 37.5029 45.3718 37.5029 45.3718 37.5029Z" fill="url(#paint1_linear_504_940)"/>
<path d="M45.5046 37.5019L40.0098 31.9189L23.6562 48.2689C24.3104 48.9335 25.2262 48.9335 26.4036 48.4018L45.5046 37.5019Z" fill="url(#paint2_linear_504_940)"/>
<path d="M45.5046 26.3369L26.4036 15.437C25.2262 14.7723 24.3104 14.9053 23.6562 15.5699L40.0098 31.9199L45.5046 26.3369Z" fill="url(#paint3_linear_504_940)"/>
<defs>
<linearGradient id="paint0_linear_504_940" x1="38.5428" y1="46.7029" x2="16.4422" y2="24.6941" gradientUnits="userSpaceOnUse">
<stop stop-color="#00A0FF"/>
<stop offset="0.0066" stop-color="#00A1FF"/>
<stop offset="0.2601" stop-color="#00BEFF"/>
<stop offset="0.5122" stop-color="#00D2FF"/>
<stop offset="0.7604" stop-color="#00DFFF"/>
<stop offset="1" stop-color="#00E3FF"/>
</linearGradient>
<linearGradient id="paint1_linear_504_940" x1="54.2885" y1="31.8534" x2="22.5562" y2="31.8534" gradientUnits="userSpaceOnUse">
<stop stop-color="#FFE000"/>
<stop offset="0.4087" stop-color="#FFBD00"/>
<stop offset="0.7754" stop-color="#FFA500"/>
<stop offset="1" stop-color="#FF9C00"/>
</linearGradient>
<linearGradient id="paint2_linear_504_940" x1="31.5553" y1="39.8151" x2="1.58508" y2="9.96959" gradientUnits="userSpaceOnUse">
<stop stop-color="#FF3A44"/>
<stop offset="1" stop-color="#C31162"/>
</linearGradient>
<linearGradient id="paint3_linear_504_940" x1="8.61591" y1="47.0587" x2="21.999" y2="33.7314" gradientUnits="userSpaceOnUse">
<stop stop-color="#32A071"/>
<stop offset="0.0685" stop-color="#2DA771"/>
<stop offset="0.4762" stop-color="#15CF74"/>
<stop offset="0.8009" stop-color="#06E775"/>
<stop offset="1" stop-color="#00F076"/>
</linearGradient>
</defs>
</svg>
