<svg width="64" height="75" viewBox="0 0 64 75" fill="none" xmlns="http://www.w3.org/2000/svg">
<path fill-rule="evenodd" clip-rule="evenodd" d="M46.3193 0.108309C45.9508 0.260345 45.409 1.06993 45.4083 1.47018C45.4072 1.92614 45.8327 2.58531 46.2772 2.81651C46.6241 2.99699 47.3577 3.03892 50.1709 3.03892H53.6372L51.3803 5.32152C50.1391 6.5768 46.4474 10.2504 43.1767 13.4848L37.23 19.3657L34.3608 16.4959C32.7827 14.9175 31.3484 13.5532 31.1734 13.4639C30.6337 13.1888 30.0352 13.2794 29.437 13.7266C28.3883 14.5105 0.255055 42.9757 0.0906856 43.4192C-0.366722 44.6529 0.995592 45.8477 2.17561 45.2477C2.35062 45.1588 8.80736 38.7427 16.5237 30.9898L30.5537 16.8937L33.5726 20.0107L36.5918 23.1276L37.2447 23.1261L37.8977 23.1247L46.8184 14.1537L55.739 5.18267L55.7828 8.88798L55.8265 12.5931L56.3024 13.0208C57.1175 13.7531 58.2296 13.4867 58.6534 12.4575C58.7761 12.1596 58.8122 10.4724 58.7824 6.4447L58.7408 0.846057L58.3369 0.439797L57.933 0.0333905L52.2896 0.00348182C49.1131 -0.0133785 46.5033 0.0325109 46.3193 0.108309ZM49.6791 19.3277C49.4236 19.4022 49.0795 19.6361 48.9141 19.8475C48.6158 20.229 48.6135 20.3285 48.6135 32.5792V44.9264L47.4841 45.0195C46.8631 45.0708 46.2074 45.1542 46.027 45.2049L45.6991 45.2972V36.6575V28.0177L45.2526 27.5871L44.8063 27.1565L41.5004 27.116C38.5708 27.0801 38.1368 27.105 37.6867 27.3359C37.4073 27.4792 37.0968 27.7613 36.9967 27.9629C36.8558 28.2464 36.8141 30.9243 36.8125 39.7989L36.8103 51.2683L36.2898 52.087C35.5802 53.2032 34.9556 54.7243 34.5199 56.398C34.2158 57.5659 34.1548 58.1388 34.1522 59.8508C34.1463 63.5083 35.0619 66.2931 37.1993 69.1192C43.1725 77.017 55.0393 76.9486 61.0057 68.9821C63.7821 65.275 64.6932 60.4423 63.4635 55.9461C63.1089 54.6495 61.9657 52.2137 61.2374 51.2034C60.5706 50.278 58.9291 48.595 58.1215 48.0087L57.5022 47.5591V33.8955C57.5022 20.3527 57.4996 20.2287 57.2042 19.8507C57.0401 19.641 56.6632 19.4016 56.3664 19.3186C55.7038 19.1335 50.3211 19.141 49.6791 19.3277ZM54.4422 34.0629C54.4422 44.2789 54.4137 45.8698 54.2328 45.7999C54.1175 45.7555 53.7568 45.6495 53.4313 45.5643C53.1056 45.4792 52.577 45.3411 52.2564 45.2573L51.6735 45.1051V33.675V22.245H53.0578H54.4422V34.0629ZM42.7848 38.2218V46.2818L42.3112 46.5253C42.0506 46.6592 41.3949 47.0555 40.854 47.4057L39.8704 48.0427V39.1024V30.162H41.3276H42.7848V38.2218ZM25.9126 35.9501C24.969 36.3704 25.0072 35.7324 25.0072 51.064C25.0072 63.2732 25.0342 64.9951 25.2323 65.4153C25.6287 66.2557 25.857 66.3017 29.6317 66.3017H33.0457L33.4709 65.8229L33.896 65.3441V51.0059V36.6678L33.4495 36.2372L33.0032 35.8066L29.6973 35.7717C27.0623 35.7438 26.2943 35.78 25.9126 35.9501ZM30.9816 51.0541V63.2962H29.5245H28.0673V51.0541V38.8121H29.5245H30.9816V51.0541ZM14.0055 39.4221C13.8453 39.5108 13.6009 39.7231 13.4623 39.8941C13.2283 40.1831 13.2104 41.0825 13.2073 52.7148L13.2041 65.2247L13.6175 65.6406C14.169 66.1956 14.7474 66.2671 18.176 66.2042C21.2744 66.1473 21.4779 66.0951 21.8743 65.2546C22.1936 64.5777 22.2043 40.9772 21.8858 40.2099C21.5173 39.3226 21.1934 39.2513 17.5465 39.2563C15.4655 39.2593 14.1922 39.3188 14.0055 39.4221ZM19.0328 52.8135V63.2962H17.5756H16.1184V52.8135V42.3308H17.5756H19.0328V52.8135ZM52.0467 48.3442C54.0994 48.8723 55.6794 49.7572 57.2643 51.2663C60.7762 54.6103 61.9118 59.6821 60.1833 64.3024C59.0578 67.311 56.3739 69.9981 53.3475 71.1466C48.2604 73.0772 42.6858 71.4108 39.3464 66.9615C38.7548 66.1731 37.7217 63.9083 37.4717 62.8514C36.3063 57.9239 38.2942 52.7614 42.4025 50.0456C45.4141 48.0549 48.6821 47.4783 52.0467 48.3442ZM48.8157 49.5062C48.2181 49.76 47.8849 50.375 47.8849 51.2242C47.8849 51.9529 47.8537 52.0257 47.4841 52.1612C46.1092 52.6653 45.0241 53.7279 44.5286 55.0563C44.1004 56.2042 44.1638 57.9221 44.673 58.9673C45.4225 60.5063 46.7937 61.4511 48.6468 61.7055C49.8454 61.87 50.2525 62.0821 50.6599 62.7543C51.4041 63.9822 50.5157 65.4954 49.0506 65.4954C47.9876 65.4954 47.1563 64.6632 47.1563 63.5989C47.1563 63.3147 47.0028 62.9814 46.7311 62.6754C46.3659 62.2642 46.2098 62.1966 45.6255 62.1966C45.0533 62.1966 44.8867 62.2651 44.5762 62.6282C44.2383 63.0235 44.2128 63.148 44.2738 64.1042C44.324 64.89 44.4442 65.3402 44.7594 65.9229C45.273 66.8726 46.3617 67.8822 47.2332 68.217C47.8291 68.4461 47.8849 68.5103 47.8849 68.968C47.8849 70.0629 48.6739 70.758 49.6976 70.5647C50.4018 70.4319 50.7992 69.8784 50.7992 69.0306C50.7992 68.3776 50.8224 68.3414 51.4576 68.0024C51.8195 67.8092 52.3517 67.3884 52.6399 67.0673C54.3614 65.1502 54.3958 62.2638 52.7204 60.3437C52.0177 59.5385 50.7052 58.9059 49.4419 58.7633C48.2167 58.6251 47.7169 58.3561 47.3874 57.6575C47.1015 57.0513 47.0967 56.6862 47.3661 56.0375C47.8041 54.9824 49.3364 54.5834 50.1863 55.3029C50.6467 55.6926 50.8702 56.1575 51.0117 57.0198C51.1284 57.7304 51.7981 58.3114 52.5008 58.3114C52.8942 58.3114 53.1345 58.1903 53.5294 57.793C54.0286 57.2907 54.0422 57.2479 53.9665 56.4088C53.821 54.7946 52.8725 53.2564 51.6056 52.5802C50.9907 52.252 50.9449 52.187 50.9441 51.6409C50.9429 50.7675 50.6809 49.9793 50.3108 49.7354C49.8757 49.4485 49.1968 49.3445 48.8157 49.5062ZM2.1861 52.444C2.01693 52.5128 1.73817 52.7485 1.5668 52.9677C1.26021 53.3597 1.25526 53.4612 1.25526 59.2644C1.25526 64.9843 1.26429 65.1741 1.55325 65.5439C2.00148 66.117 2.66785 66.2268 5.69964 66.2268C8.87964 66.2268 9.45362 66.1196 9.85959 65.4498C10.1274 65.0079 10.143 64.6692 10.1434 59.2937C10.144 53.0517 10.1335 52.9698 9.27453 52.5227C8.92889 52.343 8.23834 52.3021 5.6705 52.3096C3.92335 52.3147 2.35543 52.3753 2.1861 52.444ZM7.08396 59.343V63.3067L5.66321 63.2648L4.24247 63.2229L4.20371 59.301L4.1648 55.3792H5.62445H7.08396V59.343Z" fill="#EF9B11"/>
</svg>
