<svg width="64" height="64" viewBox="0 0 64 64" fill="none" xmlns="http://www.w3.org/2000/svg">
<path fill-rule="evenodd" clip-rule="evenodd" d="M38.6219 0.077565C37.0319 0.49222 35.8132 1.97417 35.5597 3.8012C35.4884 4.3152 35.4607 4.34673 35.0809 4.34673C34.3093 4.34673 33.3608 4.72072 32.7717 5.25725C31.0943 6.78449 30.9177 9.4591 32.3117 12.2264C32.642 12.8818 32.9295 13.4494 32.9509 13.4877C32.9722 13.5259 32.7959 13.6484 32.5591 13.76L32.1284 13.9629L31.7746 13.1274C30.232 9.48512 27.4574 6.59931 23.8063 4.84034C21.4967 3.7275 19.2877 3.21988 16.771 3.22364C9.8224 3.2339 3.75772 7.46628 1.39833 13.9519C0.206222 17.2289 0.206222 21.3676 1.3982 24.6458C3.8203 31.3062 10.452 35.6858 17.5627 35.3212L19.0511 35.2449V36.4072V37.5695L16.4391 38.8577C13.6343 40.2409 12.8743 40.7923 12.0744 42.0235C11.6404 42.6915 11.1974 43.9506 11.1974 44.5162C11.1974 44.8237 11.13 44.8931 10.7224 45.0048C10.0243 45.1964 9.99049 45.1832 9.73448 44.6224C9.3907 43.8694 9.08618 43.7174 8.12841 43.8205C5.16087 44.1398 0.519862 46.008 0.0240676 47.0829C-0.282225 47.7467 2.3884 55.7831 4.99037 62.028C5.80005 63.9712 5.91381 64.0804 7.01408 63.9708C9.35409 63.738 12.585 62.6176 14.3935 61.4121C15.2144 60.8648 15.2966 60.7328 15.2091 60.1019L15.1332 59.5555L16.8215 58.9274L18.5098 58.2993L29.2625 59.605C35.1765 60.3232 40.4998 60.9178 41.092 60.9266C41.6842 60.9352 42.4822 60.8703 42.8654 60.7823C44.444 60.4198 44.9195 60.0854 53.5034 53.3021C58.0682 49.6951 62.1527 46.3884 62.5802 45.954C63.4871 45.0326 63.8876 44.1511 63.9879 42.8559C64.1443 40.8394 62.7628 38.713 60.8632 38.0466L60.2515 37.8319L60.1804 35.5097C60.1054 33.0648 59.8991 31.7353 59.263 29.5998C58.3358 26.4872 56.2703 22.3327 55.5629 22.1572C55.0957 22.0414 54.6078 22.2568 54.4089 22.6667C54.2421 23.0106 54.2783 23.1092 55.2561 24.9786C57.3735 29.0263 58.3168 32.4659 58.3186 36.1451L58.3194 37.7264L57.8503 37.8134C57.1062 37.9513 56.732 38.1754 49.5347 42.7914C45.5519 45.3458 42.4327 47.2636 42.0389 47.4004C40.6633 47.878 40.4216 47.8598 34.4417 46.8318C31.3763 46.3049 28.819 45.8606 28.7588 45.8445C28.6988 45.8285 30.0098 45.0059 31.6723 44.0166C34.8998 42.0961 35.7505 41.415 36.3171 40.2982C36.994 38.964 37.0879 37.1281 36.5495 35.7524C35.5643 33.2343 32.7078 31.7587 30.0984 32.4198C29.6604 32.5307 27.4426 33.5231 25.1701 34.6249C22.8975 35.7267 21.016 36.6282 20.989 36.6282C20.9622 36.6282 20.9569 36.228 20.9773 35.7386L21.0145 34.8491L22.1545 34.4451C24.4495 33.6318 26.1884 32.5654 27.9659 30.8814C30.5756 28.4088 32.2081 25.367 32.7992 21.8755C32.9724 20.8516 33.0012 20.1811 32.9385 18.6282C32.8951 17.5519 32.8256 16.4702 32.7843 16.2246L32.7092 15.7778L33.7022 15.3312C36.0316 14.2833 37.8838 13.9141 40.2974 14.0162C44.1145 14.1776 47.5136 15.8238 50.9017 19.1518C51.8034 20.0375 52.6584 20.8058 52.8018 20.8591C53.3934 21.0791 54.115 20.4072 53.9565 19.7839C53.8325 19.2958 51.2295 16.7244 49.7343 15.613C49.0185 15.081 47.9626 14.4023 47.3878 14.1049L46.3429 13.5641L46.9388 12.3906C47.9308 10.4369 48.1779 8.66194 47.6798 7.06914C47.2025 5.54252 46.0384 4.53191 44.5869 4.38389L43.9072 4.31458L43.7128 3.53669C43.3074 1.91373 42.5034 0.808779 41.3651 0.310292C40.7276 0.0310196 39.2731 -0.0923508 38.6219 0.077565ZM40.4187 1.97779C41.336 2.321 41.8277 3.24328 41.9602 4.86899C42.0764 6.29326 42.2712 6.539 43.182 6.40987C44.5957 6.20942 44.8819 6.25409 45.3394 6.7472C46.0354 7.49731 46.2095 8.62641 45.8436 10.0144C45.6697 10.674 45.0946 11.9331 44.6857 12.5495L44.5148 12.8072L43.3417 12.5018C41.5645 12.0392 38.4946 11.9751 36.6585 12.3622C34.7394 12.7668 34.7809 12.7726 34.3381 12.0417C32.9341 9.72486 32.9773 7.12332 34.4313 6.42213C34.8613 6.21493 35.0012 6.20229 35.4781 6.32829C36.8742 6.69715 37.2168 6.45341 37.3293 5.01151C37.4575 3.36928 37.9741 2.31487 38.812 1.9848C39.237 1.81751 39.9816 1.81414 40.4187 1.97779ZM19.4886 5.40527C27.229 6.86807 32.386 14.5178 30.7646 22.1316C30.1886 24.836 29.0001 27.0259 26.9932 29.0809C25.6829 30.4224 24.4562 31.2965 22.7893 32.0766C20.9437 32.9401 19.4905 33.2688 17.1915 33.343L15.2688 33.405L14.2147 32.8961C11.4442 31.5582 9.22526 29.561 7.70495 27.0368C3.14324 19.4631 6.03224 9.70959 14.0085 5.75511C14.5176 5.50261 15.1622 5.25474 15.4409 5.20419C16.122 5.0807 18.3593 5.19181 19.4886 5.40527ZM11.1884 9.26879C9.22032 9.80556 8.00098 11.4886 8.00098 13.6683C8.00098 15.8368 9.17991 17.4918 11.122 18.0496C14.4374 19.0015 17.2812 14.9085 15.6364 11.5524C14.777 9.79893 12.8577 8.81347 11.1884 9.26879ZM20.1093 9.94695C19.9598 9.97122 19.7518 10.0866 19.6469 10.2032C19.3049 10.5836 12.4283 26.9046 12.4207 27.3541C12.4069 28.1616 13.5183 28.573 14.0667 27.9635C14.3935 27.6002 21.3324 11.2342 21.3271 10.8391C21.3195 10.2764 20.7314 9.84547 20.1093 9.94695ZM12.8463 11.3849C13.5881 11.7561 14.1109 12.7001 14.1109 13.6683C14.1109 15.1324 12.9318 16.3947 11.766 16.1788C11.0061 16.038 10.2584 15.2342 10.0566 14.3412C9.76818 13.0651 10.3501 11.7231 11.385 11.2777C11.9277 11.0441 12.2064 11.0645 12.8463 11.3849ZM45.0281 19.9413C44.8255 20.1956 44.7655 20.4512 44.7655 21.0585V21.8461L44.1005 22.0426C42.7188 22.4509 41.5464 23.7 41.1604 25.1746C40.9107 26.1289 40.9147 26.6101 41.1795 27.5486C41.4605 28.5444 42.3903 29.4876 43.7833 30.1901L44.7643 30.6849L44.765 34.2196L44.7655 37.7543H44.3381C43.7991 37.7543 43.0444 37.4937 42.3757 37.0768C41.4859 36.522 40.7295 36.6988 40.5246 37.5095C40.4684 37.7323 40.524 37.9278 40.7098 38.1611C41.0634 38.6052 42.8379 39.4709 43.5926 39.5676C44.8322 39.7264 44.7655 39.6702 44.7655 40.5551C44.7655 41.5578 45.0629 42.0085 45.7248 42.0085C46.442 42.0085 46.6656 41.6722 46.6656 40.5932V39.6786L47.4082 39.4588C49.8861 38.7257 51.5756 36.0166 51.1103 33.5225C50.7673 31.6837 49.7575 30.5861 47.6479 29.7594L46.7289 29.3993L46.6948 26.5538L46.6607 23.7084L47.0748 23.7892C47.3026 23.8336 47.7739 24.0461 48.1223 24.2613C48.8647 24.7201 49.3623 24.761 49.7338 24.3941C50.5854 23.5529 49.4693 22.4371 47.2039 21.8651L46.6656 21.7291V20.9205C46.6656 20.2789 46.6132 20.0604 46.4122 19.8619C46.035 19.4893 45.357 19.5282 45.0281 19.9413ZM20.2423 20.591C18.4295 21.2099 17.3139 23.0177 17.4279 25.1517C17.5558 27.5488 19.1067 29.2341 21.2905 29.3495C22.056 29.3901 22.309 29.3483 22.8891 29.086C24.4445 28.3826 25.3823 26.9982 25.4845 25.2546C25.6755 21.9965 23.0269 19.6402 20.2423 20.591ZM22.1925 22.5401C23.0097 22.9601 23.4846 23.8371 23.4846 24.9267C23.4846 27.3806 20.8279 28.3193 19.7255 26.2547C19.3433 25.5388 19.3187 24.3219 19.6728 23.6418C19.9235 23.1605 20.4941 22.5711 20.8245 22.4524C21.1861 22.3224 21.8519 22.3651 22.1925 22.5401ZM44.7655 26.1805C44.7655 27.4537 44.7196 28.4953 44.6636 28.4953C44.4492 28.4953 43.3796 27.7468 43.1996 27.4709C42.879 26.9793 42.8242 26.3198 43.0443 25.5967C43.259 24.8913 43.4605 24.6019 44.0542 24.1462C44.7531 23.6099 44.7655 23.6456 44.7655 26.1805ZM47.3911 31.6898C49.0585 32.378 49.6972 34.0266 48.9519 35.7182C48.5556 36.6174 47.4077 37.6292 46.784 37.6292C46.7137 37.6292 46.6656 36.3816 46.6656 34.5637C46.6656 32.5399 46.71 31.4982 46.7963 31.4982C46.8682 31.4982 47.1359 31.5844 47.3911 31.6898ZM32.9742 34.5268C35.1757 35.5777 35.6901 38.5809 33.9605 40.2847C33.7316 40.5103 31.654 41.8128 29.3438 43.1793C24.8893 45.8142 24.772 45.9087 25.0301 46.6514C25.0924 46.8307 25.269 47.0414 25.4224 47.1195C25.8187 47.3211 39.4838 49.6414 40.2594 49.6388C41.1995 49.6356 42.486 49.3344 43.3297 48.92C43.7361 48.7203 47.0328 46.6553 50.6555 44.331C54.2783 42.0067 57.4419 40.0052 57.6858 39.883C58.4072 39.5222 59.1108 39.4609 59.9078 39.6897C62.1217 40.3255 62.8338 43.243 61.1495 44.7759C60.9515 44.9561 57.0367 48.0723 52.45 51.7007C46.8486 56.1319 43.875 58.4046 43.393 58.6228C42.095 59.2104 41.7702 59.189 29.47 57.7088L18.2962 56.364L16.5518 57.0083C15.5926 57.3626 14.7371 57.6516 14.651 57.6506C14.565 57.6496 14.4272 57.3814 14.3447 57.0544C14.2624 56.7275 13.8079 55.334 13.3348 53.9577C12.2914 50.9223 12.0294 50.5902 11.0663 51.0821C10.4212 51.4117 10.4449 51.7214 11.3061 54.2033C11.7368 55.4445 12.088 56.5325 12.0867 56.621C12.0853 56.7095 11.6161 57.0055 11.044 57.2786C10.131 57.7148 9.93133 57.766 9.40805 57.6974C8.8512 57.6245 8.78343 57.6475 8.37757 58.0484C8.0253 58.3964 7.75587 58.5181 6.95214 58.6927C6.40707 58.8109 5.92103 58.8637 5.872 58.81C5.65666 58.5737 3.84538 53.5277 2.8277 50.3295C2.11593 48.0924 2.08464 47.9425 2.29593 47.7836C2.66112 47.5089 4.22958 46.8257 5.31389 46.469C6.21972 46.1709 8.04544 45.7333 8.1089 45.7989C8.12258 45.8131 8.40228 46.5004 8.73036 47.3262C9.52826 49.3343 10.0426 49.7694 10.8636 49.1313C11.2485 48.8324 11.3126 48.1664 11.0074 47.639C10.6653 47.0479 10.7509 46.9313 11.6947 46.7028C12.1772 46.5861 12.6702 46.3834 12.7902 46.2525C12.9364 46.0929 13.0373 45.6877 13.0965 45.0221C13.2684 43.0918 14.0755 42.0882 16.3161 41.0193C17.0191 40.6838 20.4139 39.0485 23.8602 37.3852C27.3063 35.7219 30.3274 34.3106 30.5738 34.2492C31.2168 34.0886 32.325 34.2168 32.9742 34.5268ZM27.5771 36.2553C27.4245 36.3153 27.2028 36.5104 27.0846 36.6886C26.8827 36.9928 26.8827 37.0602 27.0827 37.7905C27.3848 38.8925 28.2672 40.4672 28.8384 40.9236C29.2192 41.2277 29.4663 41.3154 30.0636 41.3581C30.7084 41.4042 30.9368 41.3546 31.7171 40.9994C33.0863 40.3759 33.458 39.7116 32.8007 39.0625C32.3932 38.6599 32.1421 38.6746 31.1472 39.1592C30.5048 39.4721 30.2689 39.5333 30.0998 39.4311C29.7989 39.2493 29.1015 37.9409 28.9278 37.233C28.7236 36.4003 28.19 36.014 27.5771 36.2553Z" fill="#EF9B11"/>
</svg>
