<svg width="8" height="12" viewBox="0 0 8 12" fill="none" xmlns="http://www.w3.org/2000/svg">
<path fill-rule="evenodd" clip-rule="evenodd" d="M3.6343 0.0153641C2.55371 0.17255 1.63327 0.964226 1.29709 2.02562C1.15336 2.47938 1.15546 2.45247 1.14569 3.97705C1.13906 5.01802 1.13005 5.37657 1.1103 5.38978C1.09573 5.39949 1.04657 5.4076 1.00102 5.40781C0.884757 5.40831 0.642144 5.50576 0.498301 5.60975C0.265655 5.77791 0.0802257 6.06454 0.0248741 6.3416C0.00764518 6.42779 2.51258e-05 7.15431 2.51258e-05 8.71135C2.51258e-05 11.1965 -0.00544968 11.0958 0.145231 11.3786C0.298146 11.6656 0.610211 11.9075 0.911729 11.9729C1.07807 12.009 6.92193 12.009 7.08827 11.9729C7.38979 11.9075 7.70185 11.6656 7.85477 11.3786C8.00545 11.0958 7.99998 11.1965 7.99998 8.71135C7.99998 7.15431 7.99235 6.42779 7.97513 6.3416C7.91977 6.06454 7.73435 5.77791 7.5017 5.60975C7.35786 5.50576 7.11524 5.40831 6.99898 5.40781C6.95343 5.4076 6.90427 5.39949 6.8897 5.38978C6.86995 5.37657 6.86094 5.01802 6.85431 3.97705C6.84651 2.75899 6.84045 2.55968 6.80664 2.40611C6.66642 1.76941 6.40072 1.26629 5.97918 0.839125C5.57572 0.430305 5.10093 0.168211 4.54748 0.0487854C4.33224 0.00232387 3.84617 -0.015454 3.6343 0.0153641ZM4.44579 1.25812C5.03599 1.42978 5.47255 1.88661 5.65695 2.52549C5.70596 2.69527 5.7073 2.73031 5.71521 4.042L5.72332 5.38471H4H2.27668L2.28479 4.042C2.2927 2.73031 2.29404 2.69527 2.34305 2.52549C2.54928 1.8109 3.07482 1.324 3.76485 1.20817C3.93263 1.18 4.25966 1.20399 4.44579 1.25812ZM4.35855 7.88686C4.54237 7.97847 4.68049 8.1232 4.76853 8.31641C4.83193 8.45556 4.83798 8.48931 4.83798 8.7034C4.83798 8.91544 4.83168 8.9514 4.77229 9.07835C4.45457 9.75754 3.54543 9.75754 3.22771 9.07835C3.16832 8.9514 3.16202 8.91544 3.16202 8.7034C3.16202 8.48931 3.16807 8.45556 3.23147 8.31641C3.38626 7.97673 3.67518 7.79377 4.03453 7.80792C4.17998 7.81361 4.24188 7.82872 4.35855 7.88686Z" fill="#EF9B11"/>
<path fill-rule="evenodd" clip-rule="evenodd" d="M3.6343 0.0153641C2.55371 0.17255 1.63327 0.964226 1.29709 2.02562C1.15336 2.47938 1.15546 2.45247 1.14569 3.97705C1.13906 5.01802 1.13005 5.37657 1.1103 5.38978C1.09573 5.39949 1.04657 5.4076 1.00102 5.40781C0.884757 5.40831 0.642144 5.50576 0.498301 5.60975C0.265655 5.77791 0.0802257 6.06454 0.0248741 6.3416C0.00764518 6.42779 2.51258e-05 7.15431 2.51258e-05 8.71135C2.51258e-05 11.1965 -0.00544968 11.0958 0.145231 11.3786C0.298146 11.6656 0.610211 11.9075 0.911729 11.9729C1.07807 12.009 6.92193 12.009 7.08827 11.9729C7.38979 11.9075 7.70185 11.6656 7.85477 11.3786C8.00545 11.0958 7.99998 11.1965 7.99998 8.71135C7.99998 7.15431 7.99235 6.42779 7.97513 6.3416C7.91977 6.06454 7.73435 5.77791 7.5017 5.60975C7.35786 5.50576 7.11524 5.40831 6.99898 5.40781C6.95343 5.4076 6.90427 5.39949 6.8897 5.38978C6.86995 5.37657 6.86094 5.01802 6.85431 3.97705C6.84651 2.75899 6.84045 2.55968 6.80664 2.40611C6.66642 1.76941 6.40072 1.26629 5.97918 0.839125C5.57572 0.430305 5.10093 0.168211 4.54748 0.0487854C4.33224 0.00232387 3.84617 -0.015454 3.6343 0.0153641ZM4.44579 1.25812C5.03599 1.42978 5.47255 1.88661 5.65695 2.52549C5.70596 2.69527 5.7073 2.73031 5.71521 4.042L5.72332 5.38471H4H2.27668L2.28479 4.042C2.2927 2.73031 2.29404 2.69527 2.34305 2.52549C2.54928 1.8109 3.07482 1.324 3.76485 1.20817C3.93263 1.18 4.25966 1.20399 4.44579 1.25812ZM4.35855 7.88686C4.54237 7.97847 4.68049 8.1232 4.76853 8.31641C4.83193 8.45556 4.83798 8.48931 4.83798 8.7034C4.83798 8.91544 4.83168 8.9514 4.77229 9.07835C4.45457 9.75754 3.54543 9.75754 3.22771 9.07835C3.16832 8.9514 3.16202 8.91544 3.16202 8.7034C3.16202 8.48931 3.16807 8.45556 3.23147 8.31641C3.38626 7.97673 3.67518 7.79377 4.03453 7.80792C4.17998 7.81361 4.24188 7.82872 4.35855 7.88686Z" fill="#EF9B11"/>
<path fill-rule="evenodd" clip-rule="evenodd" d="M3.6343 0.0153641C2.55371 0.17255 1.63327 0.964226 1.29709 2.02562C1.15336 2.47938 1.15546 2.45247 1.14569 3.97705C1.13906 5.01802 1.13005 5.37657 1.1103 5.38978C1.09573 5.39949 1.04657 5.4076 1.00102 5.40781C0.884757 5.40831 0.642144 5.50576 0.498301 5.60975C0.265655 5.77791 0.0802257 6.06454 0.0248741 6.3416C0.00764518 6.42779 2.51258e-05 7.15431 2.51258e-05 8.71135C2.51258e-05 11.1965 -0.00544968 11.0958 0.145231 11.3786C0.298146 11.6656 0.610211 11.9075 0.911729 11.9729C1.07807 12.009 6.92193 12.009 7.08827 11.9729C7.38979 11.9075 7.70185 11.6656 7.85477 11.3786C8.00545 11.0958 7.99998 11.1965 7.99998 8.71135C7.99998 7.15431 7.99235 6.42779 7.97513 6.3416C7.91977 6.06454 7.73435 5.77791 7.5017 5.60975C7.35786 5.50576 7.11524 5.40831 6.99898 5.40781C6.95343 5.4076 6.90427 5.39949 6.8897 5.38978C6.86995 5.37657 6.86094 5.01802 6.85431 3.97705C6.84651 2.75899 6.84045 2.55968 6.80664 2.40611C6.66642 1.76941 6.40072 1.26629 5.97918 0.839125C5.57572 0.430305 5.10093 0.168211 4.54748 0.0487854C4.33224 0.00232387 3.84617 -0.015454 3.6343 0.0153641ZM4.44579 1.25812C5.03599 1.42978 5.47255 1.88661 5.65695 2.52549C5.70596 2.69527 5.7073 2.73031 5.71521 4.042L5.72332 5.38471H4H2.27668L2.28479 4.042C2.2927 2.73031 2.29404 2.69527 2.34305 2.52549C2.54928 1.8109 3.07482 1.324 3.76485 1.20817C3.93263 1.18 4.25966 1.20399 4.44579 1.25812ZM4.35855 7.88686C4.54237 7.97847 4.68049 8.1232 4.76853 8.31641C4.83193 8.45556 4.83798 8.48931 4.83798 8.7034C4.83798 8.91544 4.83168 8.9514 4.77229 9.07835C4.45457 9.75754 3.54543 9.75754 3.22771 9.07835C3.16832 8.9514 3.16202 8.91544 3.16202 8.7034C3.16202 8.48931 3.16807 8.45556 3.23147 8.31641C3.38626 7.97673 3.67518 7.79377 4.03453 7.80792C4.17998 7.81361 4.24188 7.82872 4.35855 7.88686Z" fill="#EF9B11"/>
</svg>
