<svg width="64" height="67" viewBox="0 0 64 67" fill="none" xmlns="http://www.w3.org/2000/svg">
<path fill-rule="evenodd" clip-rule="evenodd" d="M4 0.21718C2.13626 0.71589 0.692387 2.17976 0.200258 4.0697C0.0232258 4.7497 0 7.29976 0 26.0884C0 46.8876 0.00541933 47.3555 0.254968 48.1635C0.839871 50.057 2.3769 51.49 4.25523 51.8928L4.90323 52.0318V57.8254V63.6191L5.26155 64.0203C5.77677 64.5968 6.27381 64.5719 7.69058 63.8987L8.84503 63.3501L10.3694 64.0027C11.2079 64.3618 11.9826 64.6555 12.0911 64.6555C12.1996 64.6555 12.9592 64.3627 13.7794 64.0049L15.2703 63.3543L16.7862 64.0049C17.6199 64.3627 18.4059 64.6555 18.533 64.6555C18.6601 64.6555 19.3808 64.364 20.1345 64.0078L21.5049 63.36L22.884 63.9524C24.1605 64.5008 24.2972 64.5336 24.7222 64.3933C24.999 64.3019 25.2796 64.0805 25.4289 63.8358C25.6631 63.4516 25.6765 63.122 25.6769 57.7412L25.6774 52.0527L26.471 51.832C27.5255 51.5389 28.2199 51.1154 29.0021 50.2883C30.1849 49.0376 30.4434 48.2469 30.5619 45.514L30.6452 43.5976L31.2132 44.6103C31.5255 45.1675 31.8675 45.7239 31.9732 45.847C32.1435 46.0453 32.1399 46.1982 31.9406 47.2014C31.6716 48.5561 31.665 49.512 31.9206 50.1239C32.2135 50.8249 33.1067 51.7098 33.7844 51.9706C34.587 52.2794 35.7843 52.2609 36.4244 51.9298L36.9132 51.677L37.4728 52.2132C38.3837 53.0859 39.573 53.3654 40.8023 52.9955L41.3877 52.8194L41.8475 53.9738C42.9312 56.6958 44.7808 59.3876 47.0685 61.573C48.2665 62.7172 48.5825 63.1097 49.2265 64.2524C49.6415 64.9887 50.0979 65.7 50.2406 65.833C50.5791 66.1483 50.9799 66.1395 51.4019 65.8074C51.9422 65.3825 51.8526 64.9403 50.884 63.2497C50.1255 61.9257 49.8301 61.558 48.3326 60.0749C46.359 58.1198 45.3077 56.6914 44.2497 54.5265C42.7408 51.4394 42.3899 49.8137 42.133 44.72C41.8472 39.0515 41.8467 39.0471 41.5346 38.4329C41.3804 38.1296 40.5307 36.6161 39.6463 35.0698C37.8601 31.9465 37.7325 31.5679 38.1905 30.7532C38.5525 30.1088 39.0467 29.8168 39.775 29.8168C40.7141 29.8168 41.0707 30.1649 42.2756 32.2582C42.8646 33.2817 43.4212 34.1663 43.512 34.224C44.0834 34.5866 45.0323 34.1125 45.0323 33.4647C45.0323 33.0611 43.0635 29.628 42.4689 28.9949C41.3458 27.799 39.561 27.519 38.0494 28.3016C36.1839 29.2674 35.5005 31.4203 36.4579 33.3152C36.6511 33.6976 37.5095 35.2297 38.3655 36.72L39.9218 39.4297L40.0157 41.2361C40.1053 42.959 40.0974 43.0521 39.8467 43.2476C39.7022 43.3604 38.7324 43.9266 37.6917 44.5057C36.1106 45.3856 35.7046 45.5586 35.2223 45.5582C34.5439 45.5577 33.9703 45.2465 33.5194 44.6342C33.345 44.3976 31.5324 41.2716 29.4912 37.6878C27.4501 34.1039 25.6634 31.07 25.5209 30.9458C25.1765 30.6458 24.7555 30.6607 24.34 30.9875C23.7968 31.4147 23.8895 31.8411 24.9032 33.5767C25.4 34.4272 25.8064 35.1506 25.8064 35.1841C25.8064 35.2177 25.6942 35.1852 25.5569 35.1116C25.4196 35.0382 24.5458 34.9781 23.615 34.9781C21.7253 34.9781 21.3831 35.0787 20.8812 35.7826C20.6065 36.1678 20.5806 36.3374 20.5806 37.7578C20.5806 39.4878 20.6919 39.8066 21.4586 40.2741C21.8135 40.4905 22.1134 40.5256 23.6129 40.5256C25.1124 40.5256 25.4123 40.4905 25.7672 40.2741C26.4525 39.8563 26.5973 39.5062 26.676 38.0767L26.7475 36.7792L27.7084 38.4654L28.6692 40.1516L28.6225 43.7261C28.5781 47.1207 28.5609 47.3332 28.2813 47.9458C27.929 48.7176 27.3484 49.3511 26.6452 49.7314C26.1295 50.0101 26.1175 50.0103 15.4892 50.0456C3.82335 50.0841 4.24684 50.1093 3.24477 49.3158C2.97871 49.1049 2.58981 48.6235 2.38052 48.2457L2 47.5587L1.96619 26.2878C1.94361 12.0576 1.97626 4.85421 2.06477 4.52557C2.28787 3.69692 2.96232 2.84544 3.74194 2.40828L4.45161 2.01034L15.0223 1.97512C26.8484 1.93576 26.3077 1.89744 27.3911 2.85112C27.7239 3.14402 28.0926 3.64157 28.2708 4.0377C28.5725 4.70853 28.5777 4.78737 28.5791 8.71383L28.5806 12.7076L27.6452 13.2595L26.7097 13.8114L26.7066 11.4592C26.703 8.72324 26.6155 8.20944 26.0693 7.72002L25.6733 7.36518H15.3465C4.01239 7.36518 4.48142 7.33318 4.06671 8.13512C3.912 8.43421 3.87097 9.02454 3.87097 10.9492C3.87097 13.3281 3.87794 13.3912 4.16955 13.6653C4.59213 14.0622 5.20077 14.0359 5.53897 13.6058C5.78323 13.2954 5.80645 13.0936 5.80645 11.2832V9.30066H15.2903H24.7742V12.0731V14.8454L24.2903 15.1565C24.0243 15.3278 22.9645 15.9451 21.9355 16.5283C19.8568 17.7063 19.2352 18.22 18.7361 19.1716C18.4552 19.7075 18.3969 19.9918 18.3925 20.8491C18.3895 21.4168 18.4346 22.0119 18.4925 22.1716L18.5981 22.462H12.2022H5.80645V19.6376C5.80645 17.0702 5.78452 16.786 5.56503 16.515C5.22955 16.1007 4.44787 16.1007 4.11239 16.515C3.8911 16.7883 3.87097 17.078 3.87148 19.9924C3.87187 22.9536 3.88981 23.2009 4.13239 23.5987C4.624 24.4052 4.53923 24.397 12.4797 24.4008L19.6774 24.4041L20.7742 26.3591C22.1365 28.7872 22.3392 29.0426 22.9053 29.0426C23.3759 29.0426 23.871 28.5688 23.871 28.1185C23.871 27.9841 23.1822 26.671 22.3404 25.2003C20.373 21.7635 20.2581 21.5305 20.2581 20.9791C20.2581 20.3943 20.5248 19.7644 20.9188 19.4181C21.3846 19.0089 36.8814 10.1891 37.3733 10.0533C37.8906 9.91047 38.66 10.0907 39.1378 10.4666C39.3281 10.6161 42.3266 15.7267 46.1386 22.3987L52.8066 34.069L52.7493 34.7612C52.6619 35.8141 52.3726 36.1079 50.1947 37.356C49.1334 37.9643 48.2182 38.462 48.161 38.462C48.1037 38.462 47.7735 37.9716 47.4272 37.3723C46.7375 36.1789 46.3686 35.9011 45.7735 36.1274C45.399 36.2698 45.1613 36.6239 45.1613 37.0394C45.1613 37.1889 45.8081 38.4374 46.5986 39.8138C48.135 42.489 48.3671 42.7394 49.0652 42.4739C49.7005 42.2324 49.8578 41.511 49.4194 40.849C49.2783 40.6361 49.1626 40.3954 49.1622 40.314C49.1617 40.2325 50.0177 39.6817 51.0645 39.0897C52.1114 38.4978 53.1746 37.8272 53.4274 37.5995C54.1746 36.9263 54.6128 35.9844 54.6822 34.902C54.7565 33.7454 54.607 33.287 53.5721 31.4968C53.1422 30.753 52.8117 30.1234 52.8378 30.0973C52.9077 30.0272 56.8588 33.3783 57.6459 34.1754C60.0259 36.5854 61.4095 39.9204 61.4246 43.2826C61.4275 43.9312 61.1844 46.9078 60.8843 49.8969L60.3386 55.332L61.3381 57.09C62.3288 58.8327 62.5677 59.1071 63.0942 59.1071C63.4535 59.1071 64 58.5497 64 58.1832C64 58.0234 63.6232 57.2167 63.1626 56.3903L62.3253 54.888L62.8492 49.804C63.4728 43.7514 63.4871 41.8596 62.9249 39.7516C62.3081 37.4385 61.3121 35.5045 59.7804 33.6457C59.0338 32.7398 58.247 32.0466 51.8619 26.6698L49.8528 24.9781L45.5468 17.4297C40.8058 9.11873 40.5739 8.78544 39.2141 8.32402C38.4108 8.0515 37.3169 8.02505 36.603 8.26092C36.3315 8.3506 34.9474 9.08957 33.5272 9.90299C32.107 10.7164 30.8631 11.4134 30.7628 11.4519C30.6093 11.5109 30.58 11.0674 30.5766 8.63705C30.5744 7.05047 30.5173 5.3257 30.4495 4.80441C30.1582 2.56015 28.5865 0.77318 26.3871 0.185696C25.3902 -0.0806263 5.00594 -0.0519811 4 0.21718ZM33.4485 16.1555C31.0926 16.5012 28.9964 18.0307 27.9364 20.1774C27.3237 21.4185 27.2508 21.9078 27.6106 22.3652C27.8134 22.6231 28.005 22.72 28.312 22.72C28.8275 22.72 29.0572 22.4814 29.413 21.5763C29.9732 20.1519 30.9175 19.1532 32.3045 18.5181C33.2658 18.0781 34.2698 17.9505 35.5183 18.11C36.4832 18.233 36.5408 18.2257 36.8441 17.9407C37.5677 17.2609 37.0534 16.3586 35.8596 16.2134C34.4657 16.044 34.2446 16.0387 33.4485 16.1555ZM33.8254 20.0221C32.6302 20.2528 31.5444 21.2189 31.2043 22.3541C31.0223 22.9613 31.1935 23.4262 31.6808 23.6483C32.1366 23.856 32.6618 23.6509 32.9044 23.1702C33.4181 22.1524 33.7391 21.9458 34.8077 21.9458C35.7419 21.9458 36.1742 21.6003 36.1061 20.9081C36.032 20.1581 35.0657 19.7826 33.8254 20.0221ZM34.5413 23.6376C34.1483 23.8662 34.0412 24.3498 34.265 24.8857C34.5498 25.5674 34.949 25.9458 35.3832 25.9458C35.8263 25.9458 36.3871 25.4351 36.3871 25.0314C36.3871 24.7198 35.9412 23.906 35.6329 23.6555C35.3933 23.4607 34.8603 23.452 34.5413 23.6376ZM4.78413 27.8534C4.05497 28.2519 3.87097 28.7601 3.87097 30.3759C3.87097 31.9854 4.04052 32.5 4.70632 32.9115C5.07497 33.1394 5.34787 33.1716 6.90323 33.1716C8.45858 33.1716 8.73148 33.1394 9.10013 32.9115C9.76271 32.502 9.93548 31.9834 9.93548 30.4038C9.93548 28.9245 9.83239 28.5756 9.22813 28.0103C8.89858 27.7021 8.80181 27.6861 7.05445 27.65C5.46594 27.6172 5.16774 27.6439 4.78413 27.8534ZM13.0708 27.8761C12.3905 28.2909 12.2581 28.7062 12.2586 30.4232C12.259 31.7057 12.2987 32.011 12.511 32.3589C12.9579 33.0921 13.339 33.1955 15.421 33.1487C17.1863 33.109 17.2862 33.0924 17.6195 32.7845C18.1734 32.2729 18.3226 31.7601 18.3223 30.3693C18.3222 28.9114 18.1302 28.3822 17.4325 27.9161C17.0303 27.6474 16.8493 27.6232 15.239 27.6238C13.7259 27.6241 13.427 27.659 13.0708 27.8761ZM8 30.3974V31.2361H6.90323H5.80645V30.3974V29.5587H6.90323H8V30.3974ZM16.3871 30.3974V31.2361H15.2903H14.1935V30.3974V29.5587H15.2903H16.3871V30.3974ZM4.78219 35.2138C4.05613 35.6032 3.87097 36.1147 3.87097 37.7307C3.87097 39.3403 4.04052 39.8549 4.70632 40.2663C5.07497 40.4942 5.34787 40.5265 6.90323 40.5265C8.45858 40.5265 8.73148 40.4942 9.10013 40.2663C9.76374 39.8563 9.93548 39.3389 9.93548 37.7503C9.93548 36.159 9.69522 35.5256 8.95935 35.1763C8.31329 34.8697 5.37458 34.8961 4.78219 35.2138ZM13.0708 35.2258C12.3893 35.6497 12.2581 36.0623 12.2586 37.7781C12.259 39.0605 12.2987 39.3658 12.511 39.7137C12.9579 40.447 13.339 40.5503 15.421 40.5035C17.1863 40.4639 17.2862 40.4472 17.6195 40.1394C18.1702 39.6307 18.3226 39.1133 18.3226 37.7523C18.3226 36.3912 18.1702 35.8738 17.6195 35.3652C17.2846 35.0559 17.1926 35.041 15.377 35.0057C13.6729 34.9725 13.4426 34.9945 13.0708 35.2258ZM8 37.7523V38.591H6.90323H5.80645V37.7523V36.9136H6.90323H8V37.7523ZM16.3871 37.7523V38.591H15.2903H14.1935V37.7523V36.9136H15.2903H16.3871V37.7523ZM24.7742 37.7523V38.591H23.6129H22.4516V37.7523V36.9136H23.6129H24.7742V37.7523ZM4.70968 42.5894C4.032 43.0354 3.87097 43.5146 3.87097 45.0856C3.87097 46.6951 4.04052 47.2097 4.70632 47.6212C5.07277 47.8476 5.348 47.8813 6.83445 47.8813C8.70839 47.8813 9.1511 47.7623 9.6129 47.1351C9.83974 46.827 9.87097 46.5817 9.87097 45.1071C9.87097 43.6325 9.83974 43.3872 9.6129 43.0791C9.15006 42.4503 8.70968 42.3328 6.81923 42.3338C5.32181 42.3345 5.04619 42.3679 4.70968 42.5894ZM13.0708 42.5807C12.3893 43.0045 12.2581 43.4172 12.2586 45.1329C12.259 46.4154 12.2987 46.7207 12.511 47.0685C12.9579 47.8018 13.339 47.9052 15.421 47.8583C17.1863 47.8187 17.2862 47.8021 17.6195 47.4942C18.1702 46.9856 18.3226 46.4681 18.3226 45.1071C18.3226 43.7461 18.1702 43.2287 17.6195 42.72C17.2846 42.4107 17.1926 42.3959 15.377 42.3605C13.6729 42.3274 13.4426 42.3493 13.0708 42.5807ZM21.4586 42.5853C20.6912 43.0532 20.5806 43.3709 20.5806 45.1071C20.5806 46.8434 20.6912 47.161 21.4586 47.6289C21.8126 47.8448 22.1137 47.8804 23.5871 47.8808C25.5026 47.8813 25.8413 47.7826 26.3446 47.0768C26.6192 46.6919 26.6452 46.5217 26.6452 45.1071C26.6452 43.6925 26.6192 43.5223 26.3446 43.1374C25.8413 42.4316 25.5026 42.3329 23.5871 42.3334C22.1137 42.3338 21.8126 42.3694 21.4586 42.5853ZM8 45.1071V45.9458H6.90323H5.80645V45.1071V44.2684H6.90323H8V45.1071ZM16.3871 45.1071V45.9458H15.2903H14.1935V45.1071V44.2684H15.2903H16.3871V45.1071ZM24.7742 45.1071V45.9458H23.6129H22.4516V45.1071V44.2684H23.6129H24.7742V45.1071ZM40.2979 46.9458C40.3415 47.7796 40.4747 48.9803 40.5939 49.6137L40.8107 50.7654L40.5201 51.0008C39.885 51.5151 38.7305 51.1132 38.4563 50.2825C38.329 49.8968 38.3586 49.556 38.6446 48.1112C38.8312 47.1687 39.0146 46.2918 39.0519 46.1627C39.1203 45.9265 39.8135 45.4311 40.077 45.4302C40.1674 45.4298 40.2474 45.9791 40.2979 46.9458ZM36.6404 48.3218C36.3591 49.6093 36.2108 49.8776 35.6277 50.1542C35.2668 50.3256 35.1014 50.3365 34.6981 50.2156C33.795 49.945 33.5255 49.2684 33.7591 47.8564L33.8378 47.38L34.8867 47.4497C35.4881 47.4897 36.073 47.4625 36.2581 47.386C36.8741 47.1311 36.8914 47.1736 36.6404 48.3218ZM23.7419 57.1088V62.2074L23.2581 61.9951C22.992 61.8783 22.4745 61.668 22.1081 61.5276L21.4421 61.2725L20.0058 61.9318C19.2159 62.2943 18.5253 62.591 18.4714 62.591C18.4174 62.591 17.7086 62.2998 16.8963 61.9439C15.869 61.4939 15.3212 61.3198 15.0968 61.3721C14.9194 61.4134 14.1775 61.7128 13.4483 62.0372L12.1225 62.6271L10.7386 62.0438C8.78026 61.2182 8.90477 61.234 7.88697 61.6808C7.39303 61.8976 6.95523 62.0749 6.91381 62.0749C6.87252 62.0749 6.83871 59.8103 6.83871 57.0426V52.0103H15.2903H23.7419V57.1088Z" fill="#EF9B11"/>
</svg>
