<svg width="64" height="64" viewBox="0 0 64 64" fill="none" xmlns="http://www.w3.org/2000/svg">
<path fill-rule="evenodd" clip-rule="evenodd" d="M29.9527 0.146896C25.8167 0.748913 21.9481 3.17005 19.6448 6.59841C15.274 13.1045 16.6682 21.9051 22.8232 26.6594C28.8817 31.3392 37.1801 30.8365 42.5555 25.464C47.6257 20.3964 48.389 12.5496 44.3909 6.59841C42.9293 4.42302 41.0637 2.8043 38.6216 1.59254C35.8576 0.221299 32.8677 -0.277382 29.9527 0.146896ZM32.7576 4.59235C33.0618 4.89623 33.0852 5.0149 33.0852 6.25533V7.59097L33.7311 7.86871C35.0405 8.43179 36.0948 9.90957 36.2484 11.3971C36.3144 12.036 36.2865 12.1444 35.977 12.4538C35.235 13.1954 34.3258 12.7699 34.1397 11.5939C33.9374 10.3142 33.2234 9.66516 32.0179 9.66516C30.7192 9.66516 29.9501 10.4338 29.9501 11.7319C29.9501 13.0314 30.6174 13.6815 32.1478 13.8737C34.671 14.1904 36.2185 15.8092 36.2185 18.1321C36.2185 19.8465 35.3237 21.2608 33.797 21.9592L33.0852 22.2851V23.6147C33.0852 24.8486 33.0615 24.968 32.7576 25.2716C32.3245 25.7047 31.7113 25.7047 31.2781 25.2716C30.9742 24.968 30.9506 24.8486 30.9506 23.6147V22.2851L30.2388 21.9592C28.8896 21.342 27.9155 19.977 27.7831 18.5185C27.7204 17.8275 27.7467 17.7221 28.0587 17.4102C28.8008 16.6686 29.7099 17.094 29.896 18.2701C30.0984 19.5497 30.8124 20.1988 32.0179 20.1988C33.3166 20.1988 34.0857 19.4301 34.0857 18.1321C34.0857 16.8154 33.4101 16.1689 31.8518 15.9943C30.1202 15.8001 29.0249 15.0998 28.2774 13.7086C27.8716 12.9534 27.8239 12.7538 27.821 11.7986C27.8185 10.9653 27.8846 10.5859 28.123 10.0652C28.5209 9.19635 29.4929 8.21779 30.3047 7.86871L30.9506 7.59097V6.25533C30.9506 5.0149 30.974 4.89623 31.2781 4.59235C31.4845 4.38595 31.758 4.26501 32.0179 4.26501C32.2778 4.26501 32.5513 4.38595 32.7576 4.59235ZM57.5327 27.1195C56.4785 27.4626 55.7061 28.1145 52.2312 31.5932L48.7646 35.0639L49.1801 35.8315C49.9011 37.1634 50.0908 37.9206 50.0908 39.466C50.0908 41.5947 49.4403 43.2081 47.9936 44.6675C47.0973 45.5718 46.4005 46.0195 45.1079 46.5216L44.2247 46.8647L37.3882 46.9055L30.5517 46.9463L30.2176 46.6123C29.8133 46.2083 29.7809 45.6223 30.1383 45.1809L30.3931 44.8661L37.1756 44.7991C43.9578 44.7321 43.9579 44.732 44.7583 44.4108C45.7254 44.0225 47.0243 42.7857 47.4684 41.8299C48.9501 38.6414 47.1662 35.0084 43.7578 34.2726C43.212 34.1549 39.8633 34.1262 30.6838 34.1608C19.1628 34.2042 18.286 34.2237 17.4764 34.4538C16.3477 34.7748 15.1326 35.3249 14.2305 35.9235C13.2872 36.5492 11.2063 38.3748 11.2063 38.5765C11.2063 38.6629 14.4954 42.0206 18.5155 46.038L25.8247 53.3424L36.2254 53.3012C47.9367 53.2548 47.1636 53.3194 49.4594 52.1939C50.4271 51.7194 50.9463 51.3477 51.8766 50.4627C52.9188 49.4716 53.6056 48.5528 57.5791 42.8342C63.3674 34.5038 63.3337 34.5548 63.6586 33.6401C64.2144 32.0751 64.0863 30.4393 63.3124 29.2165C62.8685 28.515 61.8564 27.629 61.1302 27.3059C60.3278 26.9491 58.3683 26.8475 57.5327 27.1195ZM3.50476 41.9022C0.267216 45.138 0 45.4404 0 45.8679C0 46.3024 0.538435 46.8687 8.83934 55.1654C17.1404 63.4619 17.707 64 18.1417 64C18.5694 64 18.872 63.7329 22.1096 60.4971C25.3471 57.2613 25.6143 56.9589 25.6143 56.5314C25.6143 56.0969 25.0759 55.5306 16.775 47.2339C8.47394 38.9374 7.90735 38.3993 7.47258 38.3993C7.04487 38.3993 6.7423 38.6664 3.50476 41.9022Z" fill="#EF9B11"/>
</svg>
