<svg width="1140" height="666" viewBox="0 0 1140 666" fill="none" xmlns="http://www.w3.org/2000/svg">
<path d="M0 342.181C0 298.795 0 277.102 13.2869 263.189C26.5739 249.276 48.2438 248.278 91.5836 246.282L1039.58 202.624C1086.73 200.453 1110.3 199.368 1125.15 213.548C1140 227.729 1140 251.327 1140 298.523V570C1140 615.255 1140 637.882 1125.94 651.941C1111.88 666 1089.25 666 1044 666H96C50.7452 666 28.1177 666 14.0589 651.941C0 637.882 0 615.255 0 570V342.181Z" fill="#EAB221" fill-opacity="0.1"/>
<mask id="mask0_4_387" style="mask-type:alpha" maskUnits="userSpaceOnUse" x="0" y="4" width="1140" height="662">
<path d="M0 164.626C0 122.009 0 100.7 12.9666 86.8562C25.9333 73.012 47.1962 71.6185 89.722 68.8315L1037.72 6.70294C1085.66 3.56142 1109.63 1.99066 1124.81 16.2154C1140 30.4401 1140 54.4592 1140 102.497V570C1140 615.255 1140 637.882 1125.94 651.941C1111.88 666 1089.25 666 1044 666H96C50.7452 666 28.1177 666 14.0589 651.941C0 637.882 0 615.255 0 570V164.626Z" fill="#F0EBFD"/>
</mask>
<g mask="url(#mask0_4_387)">
<path d="M-168.449 459.347C130.292 264.721 738.826 -41.5271 580.522 390.43C382.641 930.377 1182.07 315.435 1348.98 29.728" stroke="#EAB221" stroke-opacity="0.1" stroke-width="40"/>
<circle cx="1067" cy="602" r="151" fill="#EAB221" fill-opacity="0.1"/>
<g opacity="0.14">
<path d="M402.34 696.99L403.511 697.037C388.956 678.953 355.19 664.708 316.918 660.545C306.554 659.428 300.005 655.268 297.959 648.501C296.457 643.516 297.405 637.367 300.749 630.698C304.092 624.059 309.454 617.529 316.278 611.819C318.887 609.636 321.871 606.853 325.039 603.871C339.75 590.061 359.911 571.191 376.736 580.891C385.935 586.213 387.32 595.621 388.771 605.559C390.246 615.645 391.765 626.085 402.251 631.487C405.412 633.108 409.088 634.31 413.279 635.092L413.35 633.307C409.421 632.564 406.007 631.431 403.047 629.906C393.365 624.917 391.958 615.361 390.483 605.275C389.032 595.337 387.535 585.074 377.589 579.342C364.462 571.782 349.882 580.085 337.088 590.659C326.97 598.084 317.594 607.503 310.751 612.948C287.195 631.654 278.99 660.998 309.082 665.891C338.707 670.736 365.437 682.004 382.026 696.152L402.34 696.99Z" fill="#44A798"/>
<path d="M362.304 376.37C358.899 375.736 355.369 374.54 351.637 373.277C345.244 371.116 338.705 368.921 332.269 369.31C326.583 368.526 320.945 368.741 315.68 371.376C309.397 374.526 307.049 382.672 309.355 388.833C316.59 408.149 345.15 410.284 348.239 432.103L348.238 432.132C350.336 441.276 344.831 451.406 338.971 457.945C329.001 469.012 311.296 477.748 295.558 479.056C294.857 478.999 294.125 478.97 293.424 478.913C287.166 478.487 280.235 478.035 273.338 478.23C261.626 477.822 249.403 478.479 239.864 483.875C224.808 492.364 227.978 515.829 241.959 512.251C242.584 512.775 243.269 513.242 243.989 513.564C246.81 514.878 251.688 515.336 258.707 509.899C266.329 504.016 273.319 501.509 280.69 501.949C287.183 502.354 294.112 505.064 303.152 510.701C311.162 515.711 318.761 522.933 326.782 530.612C339.183 542.423 352.036 554.663 366.951 558.57C376.091 560.957 386.67 561.086 398.426 558.915C404.186 557.854 410.26 556.249 416.562 554.096L416.636 552.222C410.185 554.458 403.991 556.117 398.113 557.202C386.623 559.324 376.278 559.206 367.399 556.888C352.92 553.086 340.236 541.029 327.976 529.34C319.869 521.629 312.215 514.317 304.062 509.213C294.765 503.389 287.575 500.611 280.79 500.194C272.951 499.706 265.604 502.345 257.619 508.507C252.597 512.382 248.153 513.554 244.727 511.951C241.677 510.51 239.737 506.944 239.568 502.363C239.364 497.166 241.745 489.667 249.034 485.53C261.482 478.491 279.143 479.693 293.325 480.639C294.788 480.726 296.22 480.842 297.624 480.927C314.587 481.984 336.447 472.739 348.411 459.436C354.424 452.756 360.06 442.279 357.885 432.839L357.886 432.81C355.624 423.367 346.185 416.687 337.03 410.253C330.442 405.593 324.225 401.211 320.74 395.971C317.391 390.971 316.188 385.85 317.325 381.586C318.289 377.988 320.808 375.127 324.847 373.089C333.195 368.877 342.307 371.967 351.103 374.927C354.892 376.221 358.48 377.42 362.001 378.088C372.128 379.986 384.176 379.323 395.909 376.242C406.991 373.312 416.894 368.341 424.18 362.093L424.276 359.663C417.095 366.238 406.917 371.491 395.45 374.523C384.13 377.532 372.053 378.195 362.304 376.37Z" fill="#44A798"/>
<path d="M276.619 665.8C260.939 656.82 246.089 648.341 241.282 638.738C238.322 632.815 237.906 627.814 239.986 623.44C245.673 611.675 269.002 606.77 289.581 602.429C305.103 599.177 318.498 596.339 324.013 591.105C330.626 584.83 333.391 577.963 332.244 570.704C328.996 549.934 295.111 532.048 284.784 527.063C268.417 519.14 256.455 519.866 242.022 529.611C240.215 530.829 238.31 532.278 236.284 533.81C227.397 540.522 216.305 548.847 205.372 544.365C196.804 540.857 187.739 542.461 179.18 549.01C172.042 554.502 165.564 563.303 161.447 573.167C159.956 576.743 158.635 580.472 157.348 584.086C152.591 597.501 148.07 610.163 135.04 617.824C130.837 620.295 125.845 622.706 120.425 624.806L120.349 626.709C126.154 624.507 131.475 621.963 135.948 619.326C149.519 611.335 154.34 597.776 159.026 584.651C160.312 581.067 161.603 577.365 163.093 573.818C167.082 564.214 173.345 555.668 180.27 550.373C185.865 546.08 194.654 541.827 204.722 545.952C216.579 550.822 228.094 542.162 237.344 535.172C239.339 533.668 241.243 532.248 243.021 531.029C256.821 521.698 268.313 521.012 284.018 528.616C289.886 531.459 301.259 537.424 311.553 545.457C322.869 554.322 329.241 562.903 330.505 570.928C331.529 577.595 328.96 583.943 322.805 589.796C317.655 594.693 303.817 597.602 289.211 600.685C268.218 605.097 244.446 610.102 238.405 622.644C236.072 627.477 236.522 633.125 239.698 639.496C244.75 649.578 259.8 658.182 275.739 667.29C289.958 675.421 304.519 683.77 312.229 693.372L314.512 693.462C306.862 683.101 291.584 674.342 276.619 665.8Z" fill="#44A798"/>
<path d="M243.079 674.814C233.753 669.722 224.944 664.885 220.877 658.801C214.512 649.282 212.3 638.581 214.66 628.647C217.057 618.51 224.064 609.7 234.351 603.894C238.49 601.567 246.46 599.48 254.934 597.267C271.881 592.84 291.08 587.829 293.996 577.918C294.946 574.672 294.683 571.7 293.204 569.091C289.26 562.102 277.45 559.022 267.99 556.564C263.898 555.492 260.357 554.589 258.2 553.535C246.522 547.881 237.968 548.419 227.664 555.368C226.127 556.421 224.614 557.592 222.981 558.847C218.776 562.109 214.448 565.514 209.577 566.346C207.186 566.749 204.949 566.221 202.568 565.657C199.721 564.986 196.758 564.282 193.666 565.361C181.361 569.562 176.238 586.275 172.126 599.716C170.98 603.452 169.901 606.986 168.792 609.815C161.549 628.233 151.662 653.435 132.207 664.886C128.424 667.11 123.765 669.241 118.712 670.975L118.637 672.848C124.074 671.042 129.09 668.779 133.114 666.388C153.08 654.635 163.128 629.087 170.438 610.438C171.581 607.522 172.661 603.959 173.837 600.194C177.846 587.131 182.803 570.88 194.277 566.968C196.921 566.077 199.478 566.677 202.208 567.314C204.649 567.88 207.205 568.48 209.92 568.031C215.234 567.129 219.742 563.614 224.1 560.211C225.673 558.983 227.186 557.812 228.662 556.815C238.364 550.253 246.417 549.782 257.463 555.118C259.764 556.236 263.392 557.172 267.57 558.277C276.739 560.665 288.114 563.64 291.703 569.969C292.963 572.189 293.16 574.601 292.344 577.442C289.699 586.425 270.204 591.513 254.503 595.579C245.555 597.92 237.823 599.928 233.503 602.365C222.794 608.448 215.48 617.627 212.975 628.258C210.507 638.685 212.789 649.859 219.43 659.799C223.747 666.245 232.727 671.177 242.255 676.365C250.663 680.951 259.242 685.661 264.637 691.535L267.096 691.633C261.587 684.933 252.233 679.811 243.079 674.814Z" fill="#44A798"/>
<path d="M212.098 676.716L211.401 675.809C202.741 664.293 192.94 651.266 198.315 636.293C199.635 632.592 201.742 629.011 203.756 625.573C208.192 617.98 212.785 610.13 209.6 600.298C207.668 594.328 204.656 592.654 202.443 592.273C198.889 591.691 194.925 594.055 191.33 598.925C185.876 606.302 183.202 615.284 180.627 623.978C179.375 628.179 178.088 632.526 176.521 636.539C170.16 652.704 161.773 674.096 146.635 686.834L149.182 686.935C163.719 673.822 171.907 653.009 178.137 637.19C179.737 633.09 181.054 628.715 182.308 624.484C184.847 615.936 187.485 607.128 192.754 599.979C195.914 595.736 199.343 593.557 202.168 594.021C204.616 594.412 206.603 596.778 207.936 600.848C210.887 609.937 206.673 617.099 202.237 624.692C200.191 628.217 198.052 631.855 196.667 635.699L196.666 635.729C190.991 651.599 201.1 665.019 210.009 676.897L210.706 677.804C210.928 678.106 211.263 678.53 211.653 679.044C214.635 682.945 217.22 686.508 219.378 689.731L221.574 689.818C218.865 685.694 215.805 681.555 213.045 677.956C212.626 677.441 212.32 677.018 212.098 676.716Z" fill="#44A798"/>
<path d="M300.496 404.495C292.542 400.929 285.251 399.519 279.968 400.491C272.448 401.877 268.117 407.448 263.952 412.853C262.439 414.78 260.864 416.809 259.185 418.57C254.792 423.167 249.654 425.444 244.205 427.867C238.529 430.392 232.665 432.98 227.775 438.406L227.692 438.531C225.744 441.472 224.397 444.226 223.65 446.712C218.758 456.82 218.092 468.669 228.117 473.022C240.752 478.495 255.838 461.429 267.088 457.31C282.357 451.7 296.855 460.902 312.434 457.136C323.58 454.446 331.207 442.599 330.649 437.607C330.587 437.006 330.463 436.384 330.318 435.784C330.318 435.411 330.297 435.059 330.256 434.686C329.698 429.569 326.489 423.954 320.959 418.421C315.554 412.972 308.098 407.915 300.496 404.495ZM244.951 429.483C250.317 427.102 255.848 424.638 260.49 419.792C262.231 417.97 263.826 415.919 265.36 413.931C269.525 408.567 273.483 403.493 280.299 402.231C290.367 400.369 308.45 408.35 319.737 419.643C324.976 424.886 327.999 430.148 328.516 434.851C329.074 439.885 324.432 443.612 314.799 445.951C308.128 447.565 301.188 448.122 294.455 448.638C285.485 449.36 276.225 450.083 267.4 453.312C264.188 454.492 261.039 456.148 258.014 457.763C250.203 461.925 242.807 465.838 234.107 462.065C231.394 460.884 229.219 459.495 227.707 457.982C223.358 453.631 223.816 447.582 229.121 439.505C233.784 434.431 239.46 431.905 244.951 429.483Z" fill="#44A798"/>
<path d="M366.295 616.155C365.553 615.656 364.718 615.271 363.821 614.972C358.149 613.104 351.319 614.532 345.107 618.859C337.869 623.907 332.981 631.804 332.695 638.976C332.665 639.737 332.692 640.53 332.75 641.265C333.064 644.444 334.603 647.027 337.339 648.983C342.814 652.866 352.383 653.335 358.629 651.825C362.241 650.943 365.611 648.057 368.101 643.699C370.369 639.744 371.768 634.815 371.953 630.161C372.179 623.749 370.126 618.624 366.295 616.155ZM358.229 650.108C353.224 651.346 343.754 651.35 338.365 647.529C336.055 645.883 334.764 643.72 334.517 641.072C334.456 640.395 334.424 639.719 334.452 639.017C334.717 632.372 339.292 624.99 346.106 620.277C351.865 616.284 358.134 614.95 363.286 616.622C364.039 616.857 364.729 617.207 365.357 617.613C368.673 619.768 370.427 624.295 370.197 630.091C369.836 638.403 365.186 648.421 358.229 650.108Z" fill="#44A798"/>
<path d="M372.698 518.198C373.544 518.488 374.45 518.644 375.394 518.701C381.357 519.037 387.584 515.889 392.465 510.103C398.149 503.353 400.827 494.46 399.247 487.458C399.079 486.715 398.848 485.957 398.601 485.262C397.476 482.272 395.321 480.176 392.171 478.994C385.878 476.661 376.513 478.684 370.871 481.76C367.61 483.547 365.102 487.206 363.825 492.06C362.658 496.468 362.583 501.591 363.608 506.134C365.049 512.386 368.359 516.805 372.698 518.198ZM371.702 483.314C376.216 480.824 385.362 478.369 391.557 480.665C394.213 481.657 396.021 483.411 396.944 485.906C397.178 486.544 397.384 487.188 397.539 487.874C399.003 494.361 396.495 502.676 391.133 508.992C386.603 514.339 380.893 517.249 375.484 516.969C374.696 516.936 373.939 516.777 373.226 516.547C369.466 515.324 366.6 511.406 365.323 505.747C363.519 497.625 365.419 486.745 371.702 483.314Z" fill="#44A798"/>
<path d="M328.121 490.514C326.849 491.182 325.368 492.583 325.553 495.405C325.724 498.047 327.453 502.006 329.246 503.875C331.828 506.575 337.216 506.177 340.903 504.24C343.53 502.859 345.117 500.836 345.202 498.682C345.226 498.264 345.185 497.826 345.09 497.389C344.616 495.096 342.462 492.902 339.219 491.361C335.879 489.79 331.151 488.922 328.121 490.514ZM343.704 497.684C343.764 498.004 343.792 498.314 343.787 498.614C343.703 500.254 342.417 501.822 340.235 502.969C336.166 505.106 331.916 504.582 330.265 502.88C328.723 501.284 327.139 497.601 326.986 495.302C326.878 493.655 327.475 492.476 328.789 491.786C331.014 490.617 335.047 490.985 338.635 492.669C341.414 493.994 343.314 495.861 343.704 497.684Z" fill="#44A798"/>
<path d="M428.646 439.561C429.36 447.389 440.248 455.973 444.895 459.295C447.09 460.849 449.291 462.285 451.497 463.575L451.576 461.585C449.686 460.454 447.771 459.205 445.919 457.87C436.655 451.227 430.83 444.339 430.382 439.396C430.013 435.423 433.257 432.738 440.023 431.424C443.747 430.693 448.237 431.311 452.737 432.429L452.809 430.643C448.221 429.522 443.611 428.957 439.681 429.71C434.334 430.728 428.075 433.293 428.646 439.561Z" fill="#44A798"/>
<path d="M361.838 415.762C361.53 420.558 363.359 425.41 367.401 430.672C373.758 438.9 383.294 443.883 392.484 448.706C393.059 448.993 393.605 449.278 394.149 449.593C414.224 460.127 430.485 469.981 444.534 483.851C445.154 484.463 445.861 485.136 446.622 485.899C447.751 487 449.049 488.253 450.431 489.628L450.526 487.257C449.567 486.31 448.663 485.453 447.844 484.658C447.082 483.924 446.377 483.221 445.755 482.639C431.536 468.615 415.16 458.698 394.943 448.071C394.397 447.785 393.822 447.499 393.248 447.182C384.201 442.454 374.867 437.567 368.732 429.641C364.969 424.741 363.243 420.245 363.532 415.917C363.876 410.243 365.56 405.501 368.388 402.213C371.462 398.641 375.663 396.961 380.898 397.287C390.171 397.832 398.408 402.295 406.386 406.629C414.336 410.933 422.516 415.364 431.954 416.179C439.931 416.849 447.35 416.089 453.442 414.045L453.516 412.171C447.569 414.28 440.147 415.098 432.111 414.427C423.053 413.655 415.017 409.289 407.239 405.08C399.117 400.681 390.708 396.124 381.027 395.533C370.031 394.831 362.655 402.6 361.838 415.762Z" fill="#44A798"/>
</g>
<path d="M-26 665.5H101.5L-37.5 535L-178 407L-180 517L-149 544.5L-180 573.5L-178 665.5H-149L-88 604L-26 665.5Z" fill="#D9A41D" fill-opacity="0.2"/>
<path d="M1105.5 28H978L1117 158.5L1257.5 286.5L1259.5 176.5L1228.5 149L1259.5 120L1257.5 28H1228.5L1167.5 89.5L1105.5 28Z" fill="#D9A41D" fill-opacity="0.2"/>
</g>
</svg>
