<svg width="37" height="26" viewBox="0 0 37 26" fill="none" xmlns="http://www.w3.org/2000/svg">
<path fill-rule="evenodd" clip-rule="evenodd" d="M0.940753 0.0585443C0.598678 0.157641 0.153626 0.631844 0.0534717 1.00405C-0.119773 1.64757 0.137633 2.32395 0.685445 2.6646L0.961667 2.83637H18.5105H36.0592L36.3355 2.6646C36.4874 2.57013 36.6991 2.36072 36.8058 2.19937C36.9676 1.95492 37 1.82557 37 1.42484C37 1.02411 36.9676 0.894752 36.8058 0.650303C36.6991 0.488954 36.4874 0.27954 36.3355 0.185076L36.0592 0.0133029L18.619 0.00143142C7.74867 -0.00595199 1.0891 0.0155469 0.940753 0.0585443ZM0.940753 11.6404C0.598678 11.7395 0.153626 12.2137 0.0534717 12.5859C-0.119773 13.2294 0.137633 13.9058 0.685445 14.2464L0.961667 14.4182H18.5105H36.0592L36.3355 14.2464C36.4874 14.1519 36.6991 13.9425 36.8058 13.7812C36.9676 13.5367 37 13.4074 37 13.0067C37 12.6059 36.9676 12.4766 36.8058 12.2321C36.6991 12.0708 36.4874 11.8614 36.3355 11.7669L36.0592 11.5951L18.619 11.5832C7.74867 11.5759 1.0891 11.5974 0.940753 11.6404ZM0.940753 23.2222C0.598678 23.3213 0.153626 23.7955 0.0534717 24.1677C-0.119773 24.8112 0.137633 25.4876 0.685445 25.8282L0.961667 26H18.5105H36.0592L36.3355 25.8282C36.4874 25.7338 36.6991 25.5243 36.8058 25.363C36.9676 25.1186 37 24.9892 37 24.5885C37 24.1877 36.9676 24.0584 36.8058 23.8139C36.6991 23.6526 36.4874 23.4432 36.3355 23.3487L36.0592 23.1769L18.619 23.1651C7.74867 23.1577 1.0891 23.1792 0.940753 23.2222Z" fill="#405558"/>
</svg>
